<svg xmlns="http://www.w3.org/2000/svg" xmlns:xlink="http://www.w3.org/1999/xlink" width="250" zoomAndPan="magnify" viewBox="0 0 187.5 74.999997" height="100" preserveAspectRatio="xMidYMid meet" version="1.0"><defs><g/><clipPath id="3ddbac9f5a"><path d="M 0 0.101562 L 187 0.101562 L 187 74.898438 L 0 74.898438 Z M 0 0.101562 " clip-rule="nonzero"/></clipPath><clipPath id="a418cba9c3"><path d="M 0 0.101562 L 74.800781 0.101562 L 74.800781 74.898438 L 0 74.898438 Z M 0 0.101562 " clip-rule="nonzero"/></clipPath><clipPath id="27c24df6c9"><path d="M 37.398438 74.898438 C 27.414062 74.898438 18.011719 71.015625 10.957031 63.941406 C 3.886719 56.886719 0 47.484375 0 37.5 C 0 27.515625 3.886719 18.113281 10.957031 11.058594 C 18.011719 3.984375 27.414062 0.101562 37.398438 0.101562 C 47.386719 0.101562 56.789062 3.984375 63.84375 11.058594 C 70.914062 18.128906 74.800781 27.515625 74.800781 37.5 C 74.800781 47.484375 70.914062 56.886719 63.84375 63.941406 C 56.789062 71.015625 47.386719 74.898438 37.398438 74.898438 Z M 37.398438 2.34375 C 28.011719 2.34375 19.179688 6.003906 12.542969 12.640625 C 5.90625 19.277344 2.242188 28.113281 2.242188 37.5 C 2.242188 46.886719 5.90625 55.722656 12.542969 62.359375 C 19.179688 68.996094 28.011719 72.65625 37.398438 72.65625 C 46.789062 72.65625 55.621094 68.996094 62.257812 62.359375 C 68.894531 55.722656 72.558594 46.886719 72.558594 37.5 C 72.558594 28.113281 68.894531 19.277344 62.257812 12.640625 C 55.621094 6.003906 46.789062 2.34375 37.398438 2.34375 Z M 37.398438 2.34375 " clip-rule="nonzero"/></clipPath><clipPath id="f4bcd48bf3"><path d="M 7.183594 40.261719 L 10.527344 40.261719 L 10.527344 43.605469 L 7.183594 43.605469 Z M 7.183594 40.261719 " clip-rule="nonzero"/></clipPath><clipPath id="590b49d669"><path d="M 8.855469 40.261719 C 7.929688 40.261719 7.183594 41.011719 7.183594 41.933594 C 7.183594 42.855469 7.929688 43.605469 8.855469 43.605469 C 9.777344 43.605469 10.527344 42.855469 10.527344 41.933594 C 10.527344 41.011719 9.777344 40.261719 8.855469 40.261719 Z M 8.855469 40.261719 " clip-rule="nonzero"/></clipPath><clipPath id="8fb189d712"><path d="M 64.273438 40.261719 L 67.617188 40.261719 L 67.617188 43.605469 L 64.273438 43.605469 Z M 64.273438 40.261719 " clip-rule="nonzero"/></clipPath><clipPath id="6fb21a09ad"><path d="M 65.945312 40.261719 C 65.023438 40.261719 64.273438 41.011719 64.273438 41.933594 C 64.273438 42.855469 65.023438 43.605469 65.945312 43.605469 C 66.867188 43.605469 67.617188 42.855469 67.617188 41.933594 C 67.617188 41.011719 66.867188 40.261719 65.945312 40.261719 Z M 65.945312 40.261719 " clip-rule="nonzero"/></clipPath><clipPath id="8ce60153fe"><path d="M 16.234375 38 L 58.871094 38 L 58.871094 60 L 16.234375 60 Z M 16.234375 38 " clip-rule="nonzero"/></clipPath><clipPath id="d5e2ef01be"><path d="M 16.234375 15 L 58.871094 15 L 58.871094 36 L 16.234375 36 Z M 16.234375 15 " clip-rule="nonzero"/></clipPath><clipPath id="521f874b10"><path d="M 111.578125 7.578125 L 144.492188 7.578125 L 144.492188 37.5 L 111.578125 37.5 Z M 111.578125 7.578125 " clip-rule="nonzero"/></clipPath></defs><g clip-path="url(#3ddbac9f5a)"><path fill="#ffffff" d="M 0 0.101562 L 187 0.101562 L 187 74.898438 L 0 74.898438 Z M 0 0.101562 " fill-opacity="1" fill-rule="nonzero"/><path fill="#ffffff" d="M 0 0.101562 L 187 0.101562 L 187 74.898438 L 0 74.898438 Z M 0 0.101562 " fill-opacity="1" fill-rule="nonzero"/></g><g clip-path="url(#a418cba9c3)"><g clip-path="url(#27c24df6c9)"><path fill="#050a30" d="M 0 0.101562 L 74.800781 0.101562 L 74.800781 74.898438 L 0 74.898438 Z M 0 0.101562 " fill-opacity="1" fill-rule="nonzero"/></g></g><g clip-path="url(#f4bcd48bf3)"><g clip-path="url(#590b49d669)"><path fill="#050a30" d="M 7.183594 40.261719 L 10.527344 40.261719 L 10.527344 43.605469 L 7.183594 43.605469 Z M 7.183594 40.261719 " fill-opacity="1" fill-rule="nonzero"/></g></g><g clip-path="url(#8fb189d712)"><g clip-path="url(#6fb21a09ad)"><path fill="#050a30" d="M 64.273438 40.261719 L 67.617188 40.261719 L 67.617188 43.605469 L 64.273438 43.605469 Z M 64.273438 40.261719 " fill-opacity="1" fill-rule="nonzero"/></g></g><g fill="#050a30" fill-opacity="1"><g transform="translate(13.393039, 26.938525)"><g><path d="M 1.734375 -3.078125 L 1.03125 -1.828125 L -4.71875 -2.671875 L -4 -3.953125 L 0.15625 -3.1875 L -2.625 -6.359375 L -1.921875 -7.59375 Z M 1.734375 -3.078125 "/></g></g></g><g fill="#050a30" fill-opacity="1"><g transform="translate(16.508702, 21.613613)"><g><path d="M 0.046875 -6.46875 L -1.90625 -4.359375 L -1.109375 -3.625 L 0.65625 -5.53125 L 1.46875 -4.796875 L -0.296875 -2.890625 L 0.5 -2.15625 L 2.5 -4.328125 L 3.296875 -3.59375 L 0.375 -0.40625 L -3.609375 -4.078125 L -0.734375 -7.203125 Z M 0.046875 -6.46875 "/></g></g></g><g fill="#050a30" fill-opacity="1"><g transform="translate(20.485234, 17.413433)"><g><path d="M 1.34375 -6.21875 L 0 -5.28125 L 2.484375 -1.765625 L 1.359375 -0.96875 L -1.125 -4.484375 L -2.453125 -3.546875 L -3.109375 -4.46875 L 0.6875 -7.140625 Z M 1.34375 -6.21875 "/></g></g></g><g fill="#050a30" fill-opacity="1"><g transform="translate(24.831022, 14.377666)"><g><path d="M 2.703125 -5.890625 L 0.0625 -4.75 L 0.484375 -3.75 L 2.875 -4.78125 L 3.296875 -3.78125 L 0.90625 -2.75 L 1.34375 -1.734375 L 4.0625 -2.90625 L 4.484375 -1.921875 L 0.5 -0.21875 L -1.640625 -5.203125 L 2.265625 -6.875 Z M 2.703125 -5.890625 "/></g></g></g><g fill="#050a30" fill-opacity="1"><g transform="translate(30.131198, 12.149762)"><g><path d="M 3.75 -0.671875 L 2.6875 -2.03125 L 2.65625 -2.03125 L 1.625 -1.84375 L 1.890625 -0.34375 L 0.53125 -0.09375 L -0.421875 -5.4375 L 1.96875 -5.875 C 2.675781 -6 3.25 -5.929688 3.6875 -5.671875 C 4.132812 -5.421875 4.410156 -4.992188 4.515625 -4.390625 C 4.660156 -3.578125 4.441406 -2.953125 3.859375 -2.515625 L 5.296875 -0.953125 Z M 1.421875 -2.90625 L 2.453125 -3.09375 C 2.753906 -3.144531 2.96875 -3.257812 3.09375 -3.4375 C 3.226562 -3.613281 3.273438 -3.835938 3.234375 -4.109375 C 3.179688 -4.390625 3.0625 -4.585938 2.875 -4.703125 C 2.695312 -4.828125 2.457031 -4.863281 2.15625 -4.8125 L 1.125 -4.625 Z M 1.421875 -2.90625 "/></g></g></g><g fill="#050a30" fill-opacity="1"><g transform="translate(36.316234, 11.238974)"><g><path d="M 1.921875 0 L 0.546875 0 L 0.546875 -5.421875 L 1.921875 -5.421875 Z M 1.921875 0 "/></g></g></g><g fill="#050a30" fill-opacity="1"><g transform="translate(39.42405, 11.132662)"><g><path d="M 5.453125 1.046875 L 4.25 0.8125 L 2.4375 -2.9375 L 1.8125 0.34375 L 0.53125 0.109375 L 1.546875 -5.21875 L 2.75 -5 L 4.578125 -1.25 L 5.203125 -4.53125 L 6.46875 -4.28125 Z M 5.453125 1.046875 "/></g></g></g><g fill="#050a30" fill-opacity="1"><g transform="translate(45.855485, 12.426897)"><g><path d="M 4.171875 0.84375 L 2.03125 -0.15625 L 1.25 0.578125 L -0.03125 -0.015625 L 4.375 -3.9375 L 5.671875 -3.328125 L 5.4375 2.53125 L 4.109375 1.921875 Z M 4.265625 -0.28125 L 4.390625 -2.421875 L 2.828125 -0.9375 Z M 4.265625 -0.28125 "/></g></g></g><g fill="#050a30" fill-opacity="1"><g transform="translate(51.672743, 15.226459)"><g><path d="M 2.96875 2.390625 L 3.296875 0.6875 L 3.265625 0.671875 L 2.453125 0.015625 L 1.5 1.203125 L 0.421875 0.34375 L 3.8125 -3.890625 L 5.703125 -2.375 C 6.265625 -1.925781 6.597656 -1.453125 6.703125 -0.953125 C 6.804688 -0.453125 6.664062 0.0351562 6.28125 0.515625 C 5.757812 1.160156 5.140625 1.398438 4.421875 1.234375 L 4.1875 3.359375 Z M 3.125 -0.828125 L 3.9375 -0.171875 C 4.175781 0.015625 4.40625 0.0976562 4.625 0.078125 C 4.851562 0.0546875 5.050781 -0.0625 5.21875 -0.28125 C 5.394531 -0.5 5.46875 -0.710938 5.4375 -0.921875 C 5.40625 -1.140625 5.269531 -1.34375 5.03125 -1.53125 L 4.21875 -2.1875 Z M 3.125 -0.828125 "/></g></g></g><g fill="#050a30" fill-opacity="1"><g transform="translate(56.42412, 19.289832)"><g><path d="M 1.265625 1.453125 L 0.359375 0.40625 L 4.453125 -3.15625 L 5.359375 -2.109375 Z M 1.265625 1.453125 "/></g></g></g><g fill="#050a30" fill-opacity="1"><g transform="translate(58.550312, 21.551414)"><g><path d="M 6.296875 -0.0625 C 6.722656 0.664062 6.84375 1.40625 6.65625 2.15625 C 6.476562 2.90625 6.050781 3.476562 5.375 3.875 C 4.695312 4.269531 3.988281 4.359375 3.25 4.140625 C 2.519531 3.921875 1.941406 3.445312 1.515625 2.71875 C 1.097656 2 0.976562 1.265625 1.15625 0.515625 C 1.332031 -0.234375 1.757812 -0.804688 2.4375 -1.203125 C 3.125 -1.609375 3.832031 -1.695312 4.5625 -1.46875 C 5.300781 -1.25 5.878906 -0.78125 6.296875 -0.0625 Z M 5.296875 0.53125 C 5.085938 0.164062 4.773438 -0.0664062 4.359375 -0.171875 C 3.941406 -0.273438 3.535156 -0.210938 3.140625 0.015625 C 2.742188 0.242188 2.488281 0.566406 2.375 0.984375 C 2.257812 1.398438 2.304688 1.789062 2.515625 2.15625 C 2.734375 2.519531 3.046875 2.75 3.453125 2.84375 C 3.867188 2.945312 4.273438 2.882812 4.671875 2.65625 C 5.066406 2.425781 5.320312 2.101562 5.4375 1.6875 C 5.5625 1.28125 5.515625 0.894531 5.296875 0.53125 Z M 5.296875 0.53125 "/></g></g></g><g fill="#050a30" fill-opacity="1"><g transform="translate(12.157444, 55.445038)"><g><path d="M 2.90625 1.984375 L 1.515625 0.296875 L 0.484375 0.59375 L 0 0 L 4.578125 -1.265625 L 5.0625 -0.6875 L 2.90625 3.53125 L 2.40625 2.9375 Z M 3.21875 1.359375 L 4.203125 -0.5 L 2.171875 0.09375 Z M 3.21875 1.359375 "/></g></g></g><g fill="#050a30" fill-opacity="1"><g transform="translate(15.652385, 59.600585)"><g><path d="M 3.3125 2.8125 L 2.75 2.328125 L 3 -1.53125 L 0.984375 0.84375 L 0.4375 0.375 L 3.25 -2.9375 L 3.796875 -2.46875 L 3.53125 1.390625 L 5.5625 -0.984375 L 6.125 -0.5 Z M 3.3125 2.8125 "/></g></g></g><g fill="#050a30" fill-opacity="1"><g transform="translate(20.111821, 63.266427)"><g><path d="M 2.65625 -3.5 L 4.1875 -2.625 C 4.757812 -2.300781 5.125 -1.851562 5.28125 -1.28125 C 5.445312 -0.707031 5.375 -0.148438 5.0625 0.390625 C 4.75 0.929688 4.304688 1.273438 3.734375 1.421875 C 3.160156 1.566406 2.585938 1.476562 2.015625 1.15625 L 0.5 0.28125 Z M 2.953125 -2.5625 L 1.453125 0.078125 L 2.390625 0.609375 C 2.765625 0.828125 3.144531 0.878906 3.53125 0.765625 C 3.914062 0.660156 4.21875 0.414062 4.4375 0.03125 C 4.65625 -0.351562 4.707031 -0.738281 4.59375 -1.125 C 4.476562 -1.519531 4.234375 -1.828125 3.859375 -2.046875 Z M 2.953125 -2.5625 "/></g></g></g><g fill="#050a30" fill-opacity="1"><g transform="translate(25.054868, 65.965844)"><g><path d="M 4.703125 -2.21875 L 2.46875 -3.03125 L 2.078125 -1.921875 L 4.078125 -1.1875 L 3.859375 -0.578125 L 1.859375 -1.3125 L 1.4375 -0.171875 L 3.75 0.671875 L 3.53125 1.28125 L 0.546875 0.203125 L 2.03125 -3.875 L 4.9375 -2.828125 Z M 4.703125 -2.21875 "/></g></g></g><g fill="#050a30" fill-opacity="1"><g transform="translate(29.663898, 67.585215)"><g><path d="M 3.265625 0.609375 L 2.71875 -0.828125 C 2.675781 -0.835938 2.609375 -0.851562 2.515625 -0.875 L 1.515625 -1.0625 L 1.28125 0.234375 L 0.5625 0.109375 L 1.359375 -4.15625 L 3.078125 -3.84375 C 3.628906 -3.738281 4.03125 -3.53125 4.28125 -3.21875 C 4.539062 -2.90625 4.625 -2.519531 4.53125 -2.0625 C 4.46875 -1.71875 4.335938 -1.441406 4.140625 -1.234375 C 3.941406 -1.035156 3.695312 -0.90625 3.40625 -0.84375 L 4.09375 0.765625 Z M 1.640625 -1.703125 L 2.640625 -1.515625 C 3.335938 -1.378906 3.738281 -1.597656 3.84375 -2.171875 C 3.945312 -2.722656 3.648438 -3.066406 2.953125 -3.203125 L 1.953125 -3.390625 Z M 1.640625 -1.703125 "/></g></g></g><g fill="#050a30" fill-opacity="1"><g transform="translate(34.88021, 68.463103)"><g><path d="M 2.09375 -4.328125 C 2.65625 -4.316406 3.160156 -4.15625 3.609375 -3.84375 L 3.296875 -3.203125 C 2.847656 -3.484375 2.421875 -3.628906 2.015625 -3.640625 C 1.796875 -3.648438 1.625 -3.613281 1.5 -3.53125 C 1.375 -3.457031 1.304688 -3.347656 1.296875 -3.203125 C 1.296875 -3.054688 1.351562 -2.929688 1.46875 -2.828125 C 1.582031 -2.722656 1.726562 -2.644531 1.90625 -2.59375 C 2.082031 -2.539062 2.265625 -2.472656 2.453125 -2.390625 C 2.648438 -2.316406 2.835938 -2.238281 3.015625 -2.15625 C 3.191406 -2.070312 3.332031 -1.941406 3.4375 -1.765625 C 3.550781 -1.597656 3.609375 -1.394531 3.609375 -1.15625 C 3.597656 -0.769531 3.4375 -0.460938 3.125 -0.234375 C 2.8125 -0.015625 2.414062 0.0859375 1.9375 0.078125 C 1.601562 0.0664062 1.285156 0 0.984375 -0.125 C 0.679688 -0.257812 0.410156 -0.4375 0.171875 -0.65625 L 0.515625 -1.28125 C 0.722656 -1.082031 0.957031 -0.921875 1.21875 -0.796875 C 1.476562 -0.679688 1.726562 -0.617188 1.96875 -0.609375 C 2.21875 -0.609375 2.414062 -0.648438 2.5625 -0.734375 C 2.707031 -0.828125 2.785156 -0.957031 2.796875 -1.125 C 2.796875 -1.28125 2.738281 -1.40625 2.625 -1.5 C 2.507812 -1.601562 2.363281 -1.679688 2.1875 -1.734375 C 2.019531 -1.785156 1.832031 -1.847656 1.625 -1.921875 C 1.425781 -1.992188 1.238281 -2.070312 1.0625 -2.15625 C 0.894531 -2.238281 0.753906 -2.363281 0.640625 -2.53125 C 0.535156 -2.695312 0.488281 -2.898438 0.5 -3.140625 C 0.5 -3.515625 0.644531 -3.804688 0.9375 -4.015625 C 1.226562 -4.234375 1.613281 -4.335938 2.09375 -4.328125 Z M 2.09375 -4.328125 "/></g></g></g><g fill="#050a30" fill-opacity="1"><g transform="translate(39.56901, 68.550385)"><g><path d="M 0.3125 -3.8125 C 0.6875 -4.289062 1.195312 -4.578125 1.84375 -4.671875 C 2.488281 -4.773438 3.0625 -4.648438 3.5625 -4.296875 C 4.0625 -3.953125 4.351562 -3.46875 4.4375 -2.84375 C 4.53125 -2.226562 4.390625 -1.679688 4.015625 -1.203125 C 3.640625 -0.722656 3.128906 -0.429688 2.484375 -0.328125 C 1.835938 -0.234375 1.265625 -0.363281 0.765625 -0.71875 C 0.265625 -1.070312 -0.0234375 -1.554688 -0.109375 -2.171875 C -0.203125 -2.796875 -0.0625 -3.34375 0.3125 -3.8125 Z M 1.9375 -4.03125 C 1.519531 -3.96875 1.179688 -3.765625 0.921875 -3.421875 C 0.660156 -3.085938 0.5625 -2.707031 0.625 -2.28125 C 0.6875 -1.863281 0.890625 -1.53125 1.234375 -1.28125 C 1.585938 -1.03125 1.972656 -0.9375 2.390625 -1 C 2.816406 -1.0625 3.15625 -1.257812 3.40625 -1.59375 C 3.664062 -1.9375 3.765625 -2.316406 3.703125 -2.734375 C 3.640625 -3.160156 3.4375 -3.5 3.09375 -3.75 C 2.75 -4 2.363281 -4.09375 1.9375 -4.03125 Z M 1.9375 -4.03125 "/></g></g></g><g fill="#050a30" fill-opacity="1"><g transform="translate(45.384728, 67.602254)"><g><path d="M 4.109375 -1.421875 L 3.40625 -1.1875 L 0.203125 -3.359375 L 1.21875 -0.421875 L 0.546875 -0.1875 L -0.875 -4.296875 L -0.203125 -4.53125 L 3 -2.34375 L 1.984375 -5.296875 L 2.6875 -5.53125 Z M 4.109375 -1.421875 "/></g></g></g><g fill="#050a30" fill-opacity="1"><g transform="translate(50.6627, 65.600942)"><g/></g></g><g fill="#050a30" fill-opacity="1"><g transform="translate(52.705666, 64.587394)"><g><path d="M 0.75 -1.234375 L 2.34375 -2.25 L 2.6875 -1.703125 L 0.484375 -0.3125 L -1.84375 -3.984375 L -1.234375 -4.359375 Z M 0.75 -1.234375 "/></g></g></g><g fill="#050a30" fill-opacity="1"><g transform="translate(56.174243, 62.378969)"><g><path d="M 0.328125 -6.078125 L 2.015625 -4.15625 C 2.390625 -3.738281 2.554688 -3.289062 2.515625 -2.8125 C 2.472656 -2.34375 2.234375 -1.914062 1.796875 -1.53125 C 1.359375 -1.144531 0.90625 -0.960938 0.4375 -0.984375 C -0.03125 -1.015625 -0.453125 -1.238281 -0.828125 -1.65625 L -2.515625 -3.578125 L -1.953125 -4.0625 L -0.265625 -2.140625 C -0.0234375 -1.867188 0.238281 -1.722656 0.53125 -1.703125 C 0.832031 -1.691406 1.113281 -1.800781 1.375 -2.03125 C 1.644531 -2.269531 1.785156 -2.535156 1.796875 -2.828125 C 1.816406 -3.117188 1.707031 -3.398438 1.46875 -3.671875 L -0.21875 -5.59375 Z M 0.328125 -6.078125 "/></g></g></g><g fill="#050a30" fill-opacity="1"><g transform="translate(60.290589, 58.635903)"><g><path d="M -0.546875 -5.390625 L 0.25 -1.359375 L 1.9375 -3.4375 L 2.453125 -3.03125 L 0.140625 -0.1875 L -0.265625 -0.515625 L -1.046875 -4.546875 L -2.65625 -2.5625 L -3.171875 -2.984375 L -0.953125 -5.734375 Z M -0.546875 -5.390625 "/></g></g></g><g clip-path="url(#8ce60153fe)"><path fill="#02c1c1" d="M 58.070312 43.722656 C 58.105469 43.601562 58.132812 43.476562 58.164062 43.355469 C 58.417969 42.113281 58.054688 41.117188 57.703125 41.011719 C 57.3125 40.898438 56.875 41.820312 56.875 41.820312 C 52.582031 50.929688 46.484375 53.089844 46.484375 53.089844 C 52.734375 48.488281 51.890625 47.253906 51.144531 46.726562 C 50.402344 46.195312 48.851562 47.890625 47.171875 49.207031 C 45.835938 50.25 43.425781 49.585938 43.425781 49.585938 C 38.207031 48.660156 34.171875 52.894531 34.171875 52.894531 C 31.738281 55.773438 26.8125 53.167969 26.8125 53.167969 C 17.644531 49.261719 16.234375 38.964844 16.234375 38.964844 C 16.339844 42.988281 17.585938 47.027344 20.066406 50.570312 C 26.792969 60.195312 40.050781 62.539062 49.675781 55.8125 C 53.996094 52.792969 56.847656 48.457031 58.070312 43.722656 Z M 58.070312 43.722656 " fill-opacity="1" fill-rule="nonzero"/></g><g clip-path="url(#d5e2ef01be)"><path fill="#309f00" d="M 16.640625 31.625 C 16.613281 31.75 16.585938 31.875 16.558594 31.996094 C 16.328125 33.242188 16.710938 34.234375 17.066406 34.332031 C 17.457031 34.4375 17.875 33.503906 17.875 33.503906 C 21.988281 24.3125 28.042969 22.03125 28.042969 22.03125 C 21.882812 26.757812 22.75 27.972656 23.507812 28.488281 C 24.261719 29.003906 25.777344 27.277344 27.429688 25.929688 C 28.746094 24.855469 31.167969 25.472656 31.167969 25.472656 C 36.402344 26.292969 40.355469 21.980469 40.355469 21.980469 C 42.730469 19.054688 47.707031 21.5625 47.707031 21.5625 C 56.953125 25.285156 58.566406 35.550781 58.566406 35.550781 C 58.378906 31.53125 57.054688 27.519531 54.503906 24.023438 C 47.585938 14.535156 34.285156 12.453125 24.796875 19.375 C 20.539062 22.480469 17.773438 26.871094 16.640625 31.625 Z M 16.640625 31.625 " fill-opacity="1" fill-rule="nonzero"/></g><path fill="#345e7d" d="M 49.546875 43.941406 C 48.699219 42.378906 48.246094 40.476562 48.078125 39.664062 C 47.804688 38.253906 47.484375 36.488281 47.414062 36.128906 C 47.296875 35.546875 47.921875 33.363281 47.414062 33.132812 C 46.90625 32.898438 45.351562 34.765625 45.351562 34.765625 C 44.882812 34.53125 44.027344 34.765625 44.027344 34.765625 C 44.027344 34.765625 43.285156 32 42.664062 32 C 42.039062 32 41.652344 35.078125 41.652344 35.078125 C 40.949219 35 39.742188 35.894531 39.742188 36.714844 C 39.742188 38.234375 39.042969 38.273438 38.730469 38.585938 C 38.417969 38.894531 38.613281 39.714844 38.964844 40.6875 C 39.316406 41.660156 40.445312 41.582031 41.066406 41.738281 C 41.394531 41.820312 41.484375 42.207031 41.496094 42.554688 C 41.484375 42.710938 41.472656 42.875 41.472656 43.046875 C 41.464844 43.582031 41.195312 43.96875 41.050781 44.136719 C 40.945312 44.226562 40.828125 44.328125 40.828125 44.328125 C 39.445312 45.4375 39.113281 47.695312 39.039062 48.953125 C 39.710938 48.816406 41.261719 48.613281 41.921875 48.613281 C 42.476562 48.613281 43.03125 48.660156 43.574219 48.757812 L 43.613281 48.765625 L 43.648438 48.773438 C 43.675781 48.78125 44.328125 48.953125 45.082031 48.953125 C 45.558594 48.953125 46.21875 48.882812 46.652344 48.542969 C 47.046875 48.234375 47.433594 47.902344 47.8125 47.582031 C 48.945312 46.613281 49.847656 45.84375 50.71875 45.785156 C 50.277344 45.117188 49.875 44.476562 49.546875 43.941406 Z M 49.546875 43.941406 " fill-opacity="1" fill-rule="nonzero"/><path fill="#345e7d" d="M 35.382812 40.433594 C 35.046875 39.046875 35.074219 37.316406 35.078125 37.308594 C 35.164062 36.4375 35.628906 36.0625 37.828125 35.539062 C 40.339844 34.941406 40.296875 31.445312 40.203125 30.21875 C 40.203125 30.21875 40.167969 30.019531 40.085938 29.957031 C 40 29.890625 39.765625 29.9375 39.765625 29.9375 C 38.058594 30.46875 35.503906 30.15625 35.503906 30.15625 C 33.914062 27.496094 32.246094 27.296875 30.683594 27.449219 C 29.121094 27.601562 24.1875 31.464844 25.257812 33.027344 C 26.332031 34.589844 28.816406 36.039062 29.796875 36.09375 C 30.832031 36.144531 30.390625 33.488281 30.390625 33.488281 C 30.175781 32.070312 29.945312 31.320312 29.894531 30.710938 C 29.8125 29.667969 31.078125 29.519531 31.078125 29.519531 C 29.886719 29.742188 30.285156 31.003906 30.285156 31.003906 C 31.414062 35.832031 30.820312 36.125 29.859375 36.410156 C 28.953125 36.675781 26.625 35.039062 26.625 35.039062 C 26.625 35.039062 26.632812 35.464844 26.640625 36.007812 C 26.648438 39.289062 25.589844 41.359375 25.3125 41.84375 C 25.289062 41.878906 25.269531 41.914062 25.25 41.949219 C 25.25 41.949219 25.246094 41.953125 25.246094 41.953125 C 24.972656 42.414062 24.703125 42.859375 24.488281 43.1875 C 24.117188 43.765625 22.46875 45.871094 21.015625 47.707031 C 22.675781 49.792969 24.726562 51.363281 27.140625 52.390625 L 27.175781 52.40625 L 27.207031 52.421875 C 27.222656 52.433594 29.101562 53.40625 30.960938 53.40625 C 32.089844 53.40625 32.929688 53.0625 33.527344 52.351562 L 33.542969 52.332031 L 33.5625 52.3125 C 33.597656 52.273438 34.472656 51.363281 35.925781 50.457031 C 36.578125 50.050781 37.246094 49.707031 37.921875 49.433594 C 39.1875 47.738281 37.019531 44.601562 36.800781 44.265625 C 36.199219 43.339844 35.640625 41.414062 35.382812 40.433594 Z M 35.382812 40.433594 " fill-opacity="1" fill-rule="nonzero"/><path fill="#1b1919" d="M 126.703125 12.671875 C 126.269531 12.671875 125.917969 12.324219 125.917969 11.898438 C 125.917969 11.46875 126.269531 11.121094 126.703125 11.121094 C 127.132812 11.121094 127.484375 11.46875 127.484375 11.898438 C 127.484375 12.324219 127.132812 12.671875 126.703125 12.671875 " fill-opacity="1" fill-rule="nonzero"/><path fill="#1b1919" d="M 121.332031 13.832031 C 121.148438 13.832031 120.976562 13.734375 120.886719 13.578125 C 120.816406 13.460938 120.800781 13.324219 120.835938 13.191406 C 120.871094 13.058594 120.957031 12.949219 121.074219 12.882812 C 121.152344 12.839844 121.238281 12.816406 121.328125 12.816406 C 121.511719 12.816406 121.683594 12.914062 121.773438 13.070312 C 121.84375 13.1875 121.859375 13.324219 121.824219 13.453125 C 121.789062 13.585938 121.703125 13.695312 121.585938 13.761719 C 121.507812 13.808594 121.421875 13.832031 121.332031 13.832031 " fill-opacity="1" fill-rule="nonzero"/><path fill="#1b1919" d="M 117.394531 17.726562 C 117.308594 17.726562 117.21875 17.703125 117.140625 17.660156 C 117.023438 17.589844 116.9375 17.480469 116.902344 17.351562 C 116.867188 17.21875 116.886719 17.082031 116.953125 16.964844 C 117.042969 16.808594 117.214844 16.710938 117.398438 16.710938 C 117.488281 16.710938 117.574219 16.734375 117.652344 16.777344 C 117.773438 16.847656 117.855469 16.957031 117.890625 17.085938 C 117.929688 17.21875 117.910156 17.355469 117.839844 17.472656 C 117.75 17.628906 117.578125 17.726562 117.394531 17.726562 " fill-opacity="1" fill-rule="nonzero"/><path fill="#1b1919" d="M 115.957031 23.316406 C 115.527344 23.316406 115.175781 22.96875 115.175781 22.542969 C 115.175781 22.113281 115.527344 21.765625 115.957031 21.765625 C 116.390625 21.765625 116.738281 22.113281 116.738281 22.542969 C 116.738281 22.96875 116.390625 23.316406 115.957031 23.316406 " fill-opacity="1" fill-rule="nonzero"/><path fill="#1b1919" d="M 117.398438 28.371094 C 117.214844 28.371094 117.042969 28.273438 116.953125 28.117188 C 116.886719 28 116.867188 27.863281 116.902344 27.734375 C 116.9375 27.601562 117.023438 27.492188 117.140625 27.425781 C 117.21875 27.378906 117.308594 27.355469 117.394531 27.355469 C 117.578125 27.355469 117.75 27.453125 117.839844 27.609375 C 117.910156 27.726562 117.929688 27.863281 117.890625 27.996094 C 117.855469 28.125 117.773438 28.234375 117.652344 28.304688 C 117.574219 28.347656 117.488281 28.371094 117.398438 28.371094 " fill-opacity="1" fill-rule="nonzero"/><path fill="#1b1919" d="M 121.328125 32.269531 C 121.238281 32.269531 121.152344 32.246094 121.074219 32.199219 C 120.957031 32.132812 120.871094 32.023438 120.835938 31.890625 C 120.800781 31.761719 120.816406 31.625 120.886719 31.507812 C 120.976562 31.351562 121.148438 31.253906 121.332031 31.253906 C 121.421875 31.253906 121.507812 31.277344 121.585938 31.320312 C 121.703125 31.390625 121.789062 31.5 121.824219 31.628906 C 121.859375 31.761719 121.84375 31.898438 121.773438 32.015625 C 121.683594 32.171875 121.511719 32.269531 121.328125 32.269531 " fill-opacity="1" fill-rule="nonzero"/><path fill="#1b1919" d="M 126.703125 33.960938 C 126.269531 33.960938 125.917969 33.613281 125.917969 33.1875 C 125.917969 32.757812 126.269531 32.410156 126.703125 32.410156 C 127.132812 32.410156 127.484375 32.757812 127.484375 33.1875 C 127.484375 33.613281 127.132812 33.960938 126.703125 33.960938 " fill-opacity="1" fill-rule="nonzero"/><path fill="#1b1919" d="M 132.074219 32.269531 C 131.890625 32.269531 131.722656 32.171875 131.628906 32.015625 C 131.5625 31.898438 131.542969 31.761719 131.578125 31.628906 C 131.613281 31.5 131.699219 31.390625 131.816406 31.320312 C 131.894531 31.277344 131.984375 31.253906 132.074219 31.253906 C 132.257812 31.253906 132.425781 31.351562 132.519531 31.507812 C 132.585938 31.625 132.605469 31.761719 132.570312 31.890625 C 132.535156 32.023438 132.449219 32.132812 132.332031 32.199219 C 132.253906 32.246094 132.164062 32.269531 132.074219 32.269531 " fill-opacity="1" fill-rule="nonzero"/><path fill="#1b1919" d="M 136.007812 28.371094 C 135.917969 28.371094 135.828125 28.347656 135.75 28.304688 C 135.632812 28.234375 135.546875 28.125 135.511719 27.996094 C 135.476562 27.863281 135.496094 27.726562 135.5625 27.609375 C 135.65625 27.453125 135.824219 27.355469 136.007812 27.355469 C 136.097656 27.355469 136.183594 27.378906 136.261719 27.425781 C 136.382812 27.492188 136.464844 27.601562 136.503906 27.734375 C 136.539062 27.863281 136.519531 28 136.453125 28.117188 C 136.359375 28.273438 136.1875 28.371094 136.007812 28.371094 " fill-opacity="1" fill-rule="nonzero"/><path fill="#1b1919" d="M 136.007812 17.726562 C 135.824219 17.726562 135.65625 17.628906 135.5625 17.472656 C 135.496094 17.355469 135.476562 17.21875 135.511719 17.085938 C 135.546875 16.957031 135.632812 16.847656 135.75 16.777344 C 135.828125 16.734375 135.917969 16.710938 136.007812 16.710938 C 136.1875 16.710938 136.359375 16.808594 136.453125 16.964844 C 136.519531 17.082031 136.539062 17.21875 136.503906 17.351562 C 136.464844 17.480469 136.382812 17.589844 136.261719 17.660156 C 136.183594 17.703125 136.097656 17.726562 136.007812 17.726562 " fill-opacity="1" fill-rule="nonzero"/><path fill="#1b1919" d="M 132.074219 13.832031 C 131.984375 13.832031 131.894531 13.808594 131.816406 13.761719 C 131.699219 13.695312 131.613281 13.585938 131.578125 13.453125 C 131.542969 13.324219 131.5625 13.1875 131.628906 13.070312 C 131.722656 12.914062 131.890625 12.816406 132.074219 12.816406 C 132.164062 12.816406 132.253906 12.839844 132.332031 12.882812 C 132.449219 12.949219 132.535156 13.058594 132.570312 13.191406 C 132.605469 13.324219 132.585938 13.460938 132.519531 13.578125 C 132.425781 13.734375 132.257812 13.832031 132.074219 13.832031 " fill-opacity="1" fill-rule="nonzero"/><path fill="#1b1919" d="M 126.738281 13.585938 L 126.445312 22.898438 L 127.351562 22.898438 L 127.058594 13.585938 L 126.738281 13.585938 " fill-opacity="1" fill-rule="nonzero"/><path fill="#1b1919" d="M 132.109375 21.996094 L 126.152344 21.707031 L 126.152344 22.605469 L 132.109375 22.316406 L 132.109375 21.996094 " fill-opacity="1" fill-rule="nonzero"/><g clip-path="url(#521f874b10)"><path fill="#1b1919" d="M 126.699219 37.503906 C 118.371094 37.503906 111.597656 30.792969 111.597656 22.542969 C 111.597656 14.292969 118.371094 7.582031 126.699219 7.582031 C 129.992188 7.582031 133.125 8.621094 135.757812 10.582031 C 138.304688 12.480469 140.21875 15.179688 141.144531 18.179688 C 141.308594 18.714844 141.445312 19.261719 141.546875 19.808594 C 141.648438 20.351562 141.71875 20.902344 141.757812 21.441406 L 141.808594 22.160156 L 144.472656 22.160156 L 140.671875 27.464844 L 136.871094 22.160156 L 139.914062 22.160156 L 139.835938 21.3125 C 139.773438 20.695312 139.671875 20.082031 139.527344 19.488281 C 139.378906 18.867188 139.179688 18.253906 138.9375 17.664062 C 136.910156 12.6875 132.105469 9.46875 126.699219 9.46875 C 119.421875 9.46875 113.503906 15.335938 113.503906 22.542969 C 113.503906 29.75 119.421875 35.617188 126.699219 35.617188 C 130.679688 35.617188 134.386719 33.867188 136.910156 30.8125 L 138.046875 32.402344 C 135.175781 35.648438 131.046875 37.503906 126.699219 37.503906 " fill-opacity="1" fill-rule="nonzero"/></g><g fill="#050a30" fill-opacity="1"><g transform="translate(86.282747, 58.855202)"><g><path d="M 15.4375 -14.6875 L 15.4375 0 L 11.296875 0 L 11.296875 -5.734375 L 5.625 -5.734375 L 5.625 0 L 1.46875 0 L 1.46875 -14.6875 L 5.625 -14.6875 L 5.625 -9.171875 L 11.296875 -9.171875 L 11.296875 -14.6875 Z M 15.4375 -14.6875 "/></g></g></g><g fill="#050a30" fill-opacity="1"><g transform="translate(103.194479, 58.855202)"><g><path d="M 6.984375 0.1875 C 5.765625 0.1875 4.664062 -0.0625 3.6875 -0.5625 C 2.707031 -1.070312 1.941406 -1.773438 1.390625 -2.671875 C 0.835938 -3.566406 0.5625 -4.578125 0.5625 -5.703125 C 0.5625 -6.828125 0.835938 -7.835938 1.390625 -8.734375 C 1.941406 -9.628906 2.703125 -10.320312 3.671875 -10.8125 C 4.648438 -11.3125 5.753906 -11.5625 6.984375 -11.5625 C 8.210938 -11.5625 9.316406 -11.3125 10.296875 -10.8125 C 11.273438 -10.320312 12.035156 -9.628906 12.578125 -8.734375 C 13.128906 -7.847656 13.40625 -6.835938 13.40625 -5.703125 C 13.40625 -4.578125 13.128906 -3.566406 12.578125 -2.671875 C 12.035156 -1.773438 11.273438 -1.070312 10.296875 -0.5625 C 9.316406 -0.0625 8.210938 0.1875 6.984375 0.1875 Z M 6.984375 -2.984375 C 7.679688 -2.984375 8.253906 -3.222656 8.703125 -3.703125 C 9.148438 -4.179688 9.375 -4.847656 9.375 -5.703125 C 9.375 -6.546875 9.148438 -7.203125 8.703125 -7.671875 C 8.253906 -8.148438 7.679688 -8.390625 6.984375 -8.390625 C 6.285156 -8.390625 5.710938 -8.148438 5.265625 -7.671875 C 4.816406 -7.203125 4.59375 -6.546875 4.59375 -5.703125 C 4.59375 -4.847656 4.816406 -4.179688 5.265625 -3.703125 C 5.710938 -3.222656 6.285156 -2.984375 6.984375 -2.984375 Z M 6.984375 -2.984375 "/></g></g></g><g fill="#050a30" fill-opacity="1"><g transform="translate(117.168684, 58.855202)"><g><path d="M 5.078125 -10.015625 C 5.484375 -10.523438 6.007812 -10.910156 6.65625 -11.171875 C 7.3125 -11.429688 8.054688 -11.5625 8.890625 -11.5625 L 8.890625 -7.96875 C 8.535156 -8.007812 8.238281 -8.03125 8 -8.03125 C 7.144531 -8.03125 6.472656 -7.800781 5.984375 -7.34375 C 5.503906 -6.882812 5.265625 -6.175781 5.265625 -5.21875 L 5.265625 0 L 1.28125 0 L 1.28125 -11.375 L 5.078125 -11.375 Z M 5.078125 -10.015625 "/></g></g></g><g fill="#050a30" fill-opacity="1"><g transform="translate(126.463837, 58.855202)"><g><path d="M 6.125 -11.5625 C 8.007812 -11.5625 9.445312 -11.128906 10.4375 -10.265625 C 11.4375 -9.410156 11.9375 -8.09375 11.9375 -6.3125 L 11.9375 0 L 8.21875 0 L 8.21875 -1.46875 C 7.644531 -0.363281 6.53125 0.1875 4.875 0.1875 C 3.988281 0.1875 3.222656 0.0351562 2.578125 -0.265625 C 1.929688 -0.578125 1.441406 -0.992188 1.109375 -1.515625 C 0.785156 -2.046875 0.625 -2.644531 0.625 -3.3125 C 0.625 -4.394531 1.035156 -5.234375 1.859375 -5.828125 C 2.691406 -6.421875 3.96875 -6.71875 5.6875 -6.71875 L 7.953125 -6.71875 C 7.878906 -7.914062 7.078125 -8.515625 5.546875 -8.515625 C 4.992188 -8.515625 4.4375 -8.425781 3.875 -8.25 C 3.320312 -8.082031 2.847656 -7.84375 2.453125 -7.53125 L 1.109375 -10.234375 C 1.742188 -10.660156 2.507812 -10.988281 3.40625 -11.21875 C 4.3125 -11.445312 5.21875 -11.5625 6.125 -11.5625 Z M 5.984375 -2.328125 C 6.441406 -2.328125 6.84375 -2.4375 7.1875 -2.65625 C 7.539062 -2.882812 7.796875 -3.21875 7.953125 -3.65625 L 7.953125 -4.640625 L 6.234375 -4.640625 C 5.066406 -4.640625 4.484375 -4.253906 4.484375 -3.484375 C 4.484375 -3.128906 4.613281 -2.847656 4.875 -2.640625 C 5.144531 -2.429688 5.515625 -2.328125 5.984375 -2.328125 Z M 7.3125 -15.921875 L 11.3125 -15.921875 L 7.359375 -12.734375 L 4.5 -12.734375 Z M 7.3125 -15.921875 "/></g></g></g><g fill="#050a30" fill-opacity="1"><g transform="translate(139.64072, 58.855202)"><g><path d="M 5.078125 -10.015625 C 5.484375 -10.523438 6.007812 -10.910156 6.65625 -11.171875 C 7.3125 -11.429688 8.054688 -11.5625 8.890625 -11.5625 L 8.890625 -7.96875 C 8.535156 -8.007812 8.238281 -8.03125 8 -8.03125 C 7.144531 -8.03125 6.472656 -7.800781 5.984375 -7.34375 C 5.503906 -6.882812 5.265625 -6.175781 5.265625 -5.21875 L 5.265625 0 L 1.28125 0 L 1.28125 -11.375 L 5.078125 -11.375 Z M 5.078125 -10.015625 "/></g></g></g><g fill="#050a30" fill-opacity="1"><g transform="translate(148.935873, 58.855202)"><g><path d="M 1.28125 -11.375 L 5.265625 -11.375 L 5.265625 0 L 1.28125 0 Z M 3.265625 -12.625 C 2.535156 -12.625 1.945312 -12.828125 1.5 -13.234375 C 1.050781 -13.640625 0.828125 -14.144531 0.828125 -14.75 C 0.828125 -15.351562 1.050781 -15.859375 1.5 -16.265625 C 1.945312 -16.671875 2.535156 -16.875 3.265625 -16.875 C 3.992188 -16.875 4.582031 -16.679688 5.03125 -16.296875 C 5.476562 -15.910156 5.703125 -15.414062 5.703125 -14.8125 C 5.703125 -14.1875 5.476562 -13.664062 5.03125 -13.25 C 4.582031 -12.832031 3.992188 -12.625 3.265625 -12.625 Z M 3.265625 -12.625 "/></g></g></g><g fill="#050a30" fill-opacity="1"><g transform="translate(155.503328, 58.855202)"><g><path d="M 6.984375 0.1875 C 5.765625 0.1875 4.664062 -0.0625 3.6875 -0.5625 C 2.707031 -1.070312 1.941406 -1.773438 1.390625 -2.671875 C 0.835938 -3.566406 0.5625 -4.578125 0.5625 -5.703125 C 0.5625 -6.828125 0.835938 -7.835938 1.390625 -8.734375 C 1.941406 -9.628906 2.703125 -10.320312 3.671875 -10.8125 C 4.648438 -11.3125 5.753906 -11.5625 6.984375 -11.5625 C 8.210938 -11.5625 9.316406 -11.3125 10.296875 -10.8125 C 11.273438 -10.320312 12.035156 -9.628906 12.578125 -8.734375 C 13.128906 -7.847656 13.40625 -6.835938 13.40625 -5.703125 C 13.40625 -4.578125 13.128906 -3.566406 12.578125 -2.671875 C 12.035156 -1.773438 11.273438 -1.070312 10.296875 -0.5625 C 9.316406 -0.0625 8.210938 0.1875 6.984375 0.1875 Z M 6.984375 -2.984375 C 7.679688 -2.984375 8.253906 -3.222656 8.703125 -3.703125 C 9.148438 -4.179688 9.375 -4.847656 9.375 -5.703125 C 9.375 -6.546875 9.148438 -7.203125 8.703125 -7.671875 C 8.253906 -8.148438 7.679688 -8.390625 6.984375 -8.390625 C 6.285156 -8.390625 5.710938 -8.148438 5.265625 -7.671875 C 4.816406 -7.203125 4.59375 -6.546875 4.59375 -5.703125 C 4.59375 -4.847656 4.816406 -4.179688 5.265625 -3.703125 C 5.710938 -3.222656 6.285156 -2.984375 6.984375 -2.984375 Z M 6.984375 -2.984375 "/></g></g></g></svg>