<svg xmlns="http://www.w3.org/2000/svg" xmlns:xlink="http://www.w3.org/1999/xlink" width="500" zoomAndPan="magnify" viewBox="0 0 375 374.999991" height="500" preserveAspectRatio="xMidYMid meet" version="1.0"><defs><g/><clipPath id="ed27a1a81c"><path d="M 91.03125 91.03125 L 283.96875 91.03125 L 283.96875 283.96875 L 91.03125 283.96875 Z M 91.03125 91.03125 " clip-rule="nonzero"/></clipPath><clipPath id="1651f247cf"><path d="M 187.5 283.96875 C 161.742188 283.96875 137.492188 273.945312 119.292969 255.707031 C 101.054688 237.507812 91.03125 213.257812 91.03125 187.5 C 91.03125 161.742188 101.054688 137.492188 119.292969 119.292969 C 137.492188 101.054688 161.742188 91.03125 187.5 91.03125 C 213.257812 91.03125 237.507812 101.054688 255.707031 119.292969 C 273.945312 137.53125 283.96875 161.742188 283.96875 187.5 C 283.96875 213.257812 273.945312 237.507812 255.707031 255.707031 C 237.507812 273.945312 213.257812 283.96875 187.5 283.96875 Z M 187.5 96.8125 C 163.285156 96.8125 140.5 106.261719 123.378906 123.378906 C 106.261719 140.5 96.8125 163.285156 96.8125 187.5 C 96.8125 211.714844 106.261719 234.5 123.378906 251.621094 C 140.5 268.738281 163.285156 278.1875 187.5 278.1875 C 211.714844 278.1875 234.5 268.738281 251.621094 251.621094 C 268.738281 234.5 278.1875 211.714844 278.1875 187.5 C 278.1875 163.285156 268.738281 140.5 251.621094 123.378906 C 234.5 106.261719 211.714844 96.8125 187.5 96.8125 Z M 187.5 96.8125 " clip-rule="nonzero"/></clipPath><clipPath id="cc0fb9db59"><path d="M 109.558594 194.625 L 118.183594 194.625 L 118.183594 203.246094 L 109.558594 203.246094 Z M 109.558594 194.625 " clip-rule="nonzero"/></clipPath><clipPath id="105d741be5"><path d="M 113.871094 194.625 C 111.488281 194.625 109.558594 196.554688 109.558594 198.9375 C 109.558594 201.316406 111.488281 203.246094 113.871094 203.246094 C 116.25 203.246094 118.183594 201.316406 118.183594 198.9375 C 118.183594 196.554688 116.25 194.625 113.871094 194.625 Z M 113.871094 194.625 " clip-rule="nonzero"/></clipPath><clipPath id="1e73f83d7c"><path d="M 256.816406 194.625 L 265.441406 194.625 L 265.441406 203.246094 L 256.816406 203.246094 Z M 256.816406 194.625 " clip-rule="nonzero"/></clipPath><clipPath id="99e7c613ba"><path d="M 261.128906 194.625 C 258.75 194.625 256.816406 196.554688 256.816406 198.9375 C 256.816406 201.316406 258.75 203.246094 261.128906 203.246094 C 263.511719 203.246094 265.441406 201.316406 265.441406 198.9375 C 265.441406 196.554688 263.511719 194.625 261.128906 194.625 Z M 261.128906 194.625 " clip-rule="nonzero"/></clipPath><clipPath id="b8997bbf90"><path d="M 132.902344 191 L 242 191 L 242 245 L 132.902344 245 Z M 132.902344 191 " clip-rule="nonzero"/></clipPath><clipPath id="d3312f9893"><path d="M 133 130 L 242.402344 130 L 242.402344 183 L 133 183 Z M 133 130 " clip-rule="nonzero"/></clipPath></defs><rect x="-37.5" width="450" fill="#ffffff" y="-37.499999" height="449.999989" fill-opacity="1"/><rect x="-37.5" width="450" fill="#ffffff" y="-37.499999" height="449.999989" fill-opacity="1"/><g clip-path="url(#ed27a1a81c)"><g clip-path="url(#1651f247cf)"><path fill="#050a30" d="M 91.03125 91.03125 L 283.96875 91.03125 L 283.96875 283.96875 L 91.03125 283.96875 Z M 91.03125 91.03125 " fill-opacity="1" fill-rule="nonzero"/></g></g><g clip-path="url(#cc0fb9db59)"><g clip-path="url(#105d741be5)"><path fill="#050a30" d="M 109.558594 194.625 L 118.183594 194.625 L 118.183594 203.246094 L 109.558594 203.246094 Z M 109.558594 194.625 " fill-opacity="1" fill-rule="nonzero"/></g></g><g clip-path="url(#1e73f83d7c)"><g clip-path="url(#99e7c613ba)"><path fill="#050a30" d="M 256.816406 194.625 L 265.441406 194.625 L 265.441406 203.246094 L 256.816406 203.246094 Z M 256.816406 194.625 " fill-opacity="1" fill-rule="nonzero"/></g></g><g fill="#050a30" fill-opacity="1"><g transform="translate(125.576343, 160.25799)"><g><path d="M 4.484375 -7.90625 L 2.671875 -4.71875 L -12.171875 -6.890625 L -10.3125 -10.1875 L 0.40625 -8.234375 L -6.78125 -16.421875 L -4.96875 -19.59375 Z M 4.484375 -7.90625 "/></g></g></g><g fill="#050a30" fill-opacity="1"><g transform="translate(133.612805, 146.523038)"><g><path d="M 0.109375 -16.671875 L -4.90625 -11.21875 L -2.859375 -9.34375 L 1.671875 -14.28125 L 3.734375 -12.390625 L -0.796875 -7.453125 L 1.28125 -5.53125 L 6.453125 -11.15625 L 8.515625 -9.265625 L 0.953125 -1.03125 L -9.359375 -10.5 L -1.953125 -18.5625 Z M 0.109375 -16.671875 "/></g></g></g><g fill="#050a30" fill-opacity="1"><g transform="translate(143.86978, 135.689206)"><g><path d="M 3.4375 -16.078125 L -0.015625 -13.640625 L 6.421875 -4.546875 L 3.515625 -2.484375 L -2.921875 -11.578125 L -6.328125 -9.171875 L -7.984375 -11.515625 L 1.78125 -18.421875 Z M 3.4375 -16.078125 "/></g></g></g><g fill="#050a30" fill-opacity="1"><g transform="translate(155.079192, 127.858821)"><g><path d="M 6.953125 -15.15625 L 0.140625 -12.25 L 1.234375 -9.6875 L 7.390625 -12.3125 L 8.484375 -9.75 L 2.328125 -7.125 L 3.453125 -4.53125 L 10.46875 -7.53125 L 11.5625 -4.953125 L 1.296875 -0.546875 L -4.21875 -13.421875 L 5.84375 -17.734375 Z M 6.953125 -15.15625 "/></g></g></g><g fill="#050a30" fill-opacity="1"><g transform="translate(168.750331, 122.112222)"><g><path d="M 9.6875 -1.734375 L 6.9375 -5.25 L 6.828125 -5.234375 L 4.171875 -4.75 L 4.875 -0.875 L 1.390625 -0.25 L -1.09375 -14.03125 L 5.046875 -15.140625 C 6.867188 -15.460938 8.351562 -15.296875 9.5 -14.640625 C 10.65625 -13.984375 11.375 -12.894531 11.65625 -11.375 C 12.03125 -9.238281 11.460938 -7.609375 9.953125 -6.484375 L 13.65625 -2.453125 Z M 3.6875 -7.5 L 6.34375 -7.984375 C 7.101562 -8.117188 7.65625 -8.414062 8 -8.875 C 8.351562 -9.332031 8.46875 -9.921875 8.34375 -10.640625 C 8.21875 -11.347656 7.910156 -11.847656 7.421875 -12.140625 C 6.929688 -12.441406 6.304688 -12.523438 5.546875 -12.390625 L 2.890625 -11.90625 Z M 3.6875 -7.5 "/></g></g></g><g fill="#050a30" fill-opacity="1"><g transform="translate(184.703872, 119.76296)"><g><path d="M 4.953125 0 L 1.40625 0 L 1.421875 -14 L 4.96875 -14 Z M 4.953125 0 "/></g></g></g><g fill="#050a30" fill-opacity="1"><g transform="translate(192.720096, 119.488737)"><g><path d="M 14.0625 2.6875 L 10.984375 2.09375 L 6.265625 -7.578125 L 4.65625 0.890625 L 1.375 0.265625 L 4 -13.484375 L 7.09375 -12.890625 L 11.8125 -3.203125 L 13.4375 -11.6875 L 16.6875 -11.0625 Z M 14.0625 2.6875 "/></g></g></g><g fill="#050a30" fill-opacity="1"><g transform="translate(209.309185, 122.82705)"><g><path d="M 10.796875 2.171875 L 5.25 -0.40625 L 3.234375 1.5 L -0.078125 -0.046875 L 11.296875 -10.171875 L 14.609375 -8.640625 L 14.046875 6.546875 L 10.609375 4.9375 Z M 10.984375 -0.703125 L 11.359375 -6.234375 L 7.328125 -2.40625 Z M 10.984375 -0.703125 "/></g></g></g><g fill="#050a30" fill-opacity="1"><g transform="translate(224.314066, 130.048178)"><g><path d="M 7.6875 6.15625 L 8.53125 1.78125 L 8.4375 1.703125 L 6.328125 0.015625 L 3.859375 3.09375 L 1.09375 0.875 L 9.84375 -10.046875 L 14.71875 -6.140625 C 16.164062 -4.972656 17.019531 -3.738281 17.28125 -2.4375 C 17.539062 -1.144531 17.1875 0.101562 16.21875 1.3125 C 14.863281 3.007812 13.265625 3.648438 11.421875 3.234375 L 10.828125 8.671875 Z M 8.078125 -2.15625 L 10.1875 -0.46875 C 10.789062 0.0195312 11.378906 0.242188 11.953125 0.203125 C 12.523438 0.160156 13.039062 -0.140625 13.5 -0.703125 C 13.945312 -1.265625 14.117188 -1.820312 14.015625 -2.375 C 13.921875 -2.9375 13.570312 -3.460938 12.96875 -3.953125 L 10.859375 -5.640625 Z M 8.078125 -2.15625 "/></g></g></g><g fill="#050a30" fill-opacity="1"><g transform="translate(236.56966, 140.529149)"><g><path d="M 3.25 3.734375 L 0.921875 1.0625 L 11.484375 -8.125 L 13.8125 -5.453125 Z M 3.25 3.734375 "/></g></g></g><g fill="#050a30" fill-opacity="1"><g transform="translate(242.053902, 146.362612)"><g><path d="M 16.265625 -0.140625 C 17.347656 1.734375 17.664062 3.632812 17.21875 5.5625 C 16.769531 7.5 15.664062 8.976562 13.90625 10 C 12.144531 11.019531 10.304688 11.242188 8.390625 10.671875 C 6.484375 10.109375 4.984375 8.890625 3.890625 7.015625 C 2.804688 5.148438 2.492188 3.253906 2.953125 1.328125 C 3.421875 -0.597656 4.539062 -2.070312 6.3125 -3.09375 C 8.082031 -4.125 9.910156 -4.359375 11.796875 -3.796875 C 13.679688 -3.234375 15.171875 -2.015625 16.265625 -0.140625 Z M 13.703125 1.390625 C 13.148438 0.441406 12.335938 -0.164062 11.265625 -0.4375 C 10.191406 -0.707031 9.144531 -0.546875 8.125 0.046875 C 7.113281 0.640625 6.453125 1.472656 6.140625 2.546875 C 5.828125 3.628906 5.941406 4.640625 6.484375 5.578125 C 7.035156 6.515625 7.847656 7.101562 8.921875 7.34375 C 9.992188 7.59375 11.035156 7.421875 12.046875 6.828125 C 13.066406 6.234375 13.734375 5.410156 14.046875 4.359375 C 14.359375 3.316406 14.242188 2.328125 13.703125 1.390625 Z M 13.703125 1.390625 "/></g></g></g><g fill="#050a30" fill-opacity="1"><g transform="translate(122.38928, 233.786983)"><g><path d="M 7.484375 5.109375 L 3.890625 0.75 L 1.265625 1.53125 L 0.015625 0.015625 L 11.796875 -3.28125 L 13.03125 -1.78125 L 7.484375 9.109375 L 6.203125 7.5625 Z M 8.3125 3.5 L 10.828125 -1.28125 L 5.640625 0.234375 Z M 8.3125 3.5 "/></g></g></g><g fill="#050a30" fill-opacity="1"><g transform="translate(131.404054, 244.505729)"><g><path d="M 8.53125 7.234375 L 7.125 6.03125 L 7.75 -3.953125 L 2.5625 2.171875 L 1.125 0.953125 L 8.359375 -7.59375 L 9.78125 -6.390625 L 9.171875 3.625 L 14.359375 -2.515625 L 15.765625 -1.3125 Z M 8.53125 7.234375 "/></g></g></g><g fill="#050a30" fill-opacity="1"><g transform="translate(142.906612, 253.961304)"><g><path d="M 6.828125 -9 L 10.8125 -6.734375 C 12.269531 -5.898438 13.207031 -4.753906 13.625 -3.296875 C 14.050781 -1.835938 13.863281 -0.40625 13.0625 1 C 12.269531 2.414062 11.132812 3.304688 9.65625 3.671875 C 8.175781 4.046875 6.703125 3.816406 5.234375 2.984375 L 1.28125 0.734375 Z M 7.625 -6.59375 L 3.765625 0.171875 L 6.15625 1.546875 C 7.113281 2.085938 8.085938 2.222656 9.078125 1.953125 C 10.066406 1.679688 10.84375 1.050781 11.40625 0.0625 C 11.96875 -0.914062 12.101562 -1.910156 11.8125 -2.921875 C 11.53125 -3.929688 10.90625 -4.710938 9.9375 -5.265625 Z M 7.625 -6.59375 "/></g></g></g><g fill="#050a30" fill-opacity="1"><g transform="translate(155.656584, 260.924096)"><g><path d="M 12.140625 -5.703125 L 6.390625 -7.796875 L 5.375 -4.953125 L 10.515625 -3.078125 L 9.921875 -1.484375 L 4.78125 -3.359375 L 3.734375 -0.453125 L 9.65625 1.703125 L 9.078125 3.296875 L 1.375 0.5 L 5.203125 -10.03125 L 12.734375 -7.296875 Z M 12.140625 -5.703125 "/></g></g></g><g fill="#050a30" fill-opacity="1"><g transform="translate(167.54501, 265.101084)"><g><path d="M 8.4375 1.5625 L 7.046875 -2.140625 C 6.929688 -2.140625 6.757812 -2.164062 6.53125 -2.21875 L 3.90625 -2.703125 L 3.296875 0.609375 L 1.4375 0.265625 L 3.484375 -10.75 L 7.96875 -9.921875 C 9.363281 -9.660156 10.390625 -9.128906 11.046875 -8.328125 C 11.710938 -7.523438 11.929688 -6.523438 11.703125 -5.328125 C 11.546875 -4.441406 11.210938 -3.734375 10.703125 -3.203125 C 10.191406 -2.671875 9.539062 -2.332031 8.75 -2.1875 L 10.53125 1.953125 Z M 4.21875 -4.390625 L 6.84375 -3.90625 C 8.625 -3.570312 9.65625 -4.140625 9.9375 -5.609375 C 10.195312 -7.035156 9.4375 -7.914062 7.65625 -8.25 L 5.03125 -8.734375 Z M 4.21875 -4.390625 "/></g></g></g><g fill="#050a30" fill-opacity="1"><g transform="translate(180.999815, 267.365471)"><g><path d="M 5.421875 -11.15625 C 6.867188 -11.125 8.164062 -10.710938 9.3125 -9.921875 L 8.484375 -8.28125 C 7.359375 -8.988281 6.273438 -9.359375 5.234375 -9.390625 C 4.660156 -9.398438 4.207031 -9.304688 3.875 -9.109375 C 3.550781 -8.910156 3.382812 -8.625 3.375 -8.25 C 3.375 -7.882812 3.515625 -7.566406 3.796875 -7.296875 C 4.085938 -7.023438 4.457031 -6.820312 4.90625 -6.6875 C 5.351562 -6.5625 5.832031 -6.398438 6.34375 -6.203125 C 6.863281 -6.003906 7.347656 -5.796875 7.796875 -5.578125 C 8.242188 -5.359375 8.609375 -5.019531 8.890625 -4.5625 C 9.171875 -4.113281 9.304688 -3.578125 9.296875 -2.953125 C 9.273438 -1.972656 8.863281 -1.195312 8.0625 -0.625 C 7.257812 -0.0625 6.234375 0.203125 4.984375 0.171875 C 4.140625 0.148438 3.316406 -0.0234375 2.515625 -0.359375 C 1.722656 -0.691406 1.039062 -1.140625 0.46875 -1.703125 L 1.3125 -3.3125 C 1.863281 -2.78125 2.472656 -2.363281 3.140625 -2.0625 C 3.816406 -1.769531 4.460938 -1.617188 5.078125 -1.609375 C 5.734375 -1.585938 6.25 -1.691406 6.625 -1.921875 C 7 -2.148438 7.191406 -2.476562 7.203125 -2.90625 C 7.203125 -3.28125 7.054688 -3.601562 6.765625 -3.875 C 6.472656 -4.15625 6.101562 -4.359375 5.65625 -4.484375 C 5.207031 -4.617188 4.722656 -4.78125 4.203125 -4.96875 C 3.691406 -5.15625 3.210938 -5.351562 2.765625 -5.5625 C 2.328125 -5.769531 1.960938 -6.09375 1.671875 -6.53125 C 1.390625 -6.976562 1.253906 -7.507812 1.265625 -8.125 C 1.285156 -9.070312 1.675781 -9.820312 2.4375 -10.375 C 3.195312 -10.925781 4.191406 -11.1875 5.421875 -11.15625 Z M 5.421875 -11.15625 "/></g></g></g><g fill="#050a30" fill-opacity="1"><g transform="translate(193.093994, 267.590578)"><g><path d="M 0.828125 -9.84375 C 1.796875 -11.082031 3.109375 -11.820312 4.765625 -12.0625 C 6.421875 -12.3125 7.890625 -11.984375 9.171875 -11.078125 C 10.460938 -10.171875 11.222656 -8.925781 11.453125 -7.34375 C 11.691406 -5.769531 11.328125 -4.359375 10.359375 -3.109375 C 9.390625 -1.859375 8.078125 -1.109375 6.421875 -0.859375 C 4.765625 -0.617188 3.289062 -0.957031 2 -1.875 C 0.71875 -2.789062 -0.0351562 -4.035156 -0.265625 -5.609375 C -0.503906 -7.191406 -0.140625 -8.601562 0.828125 -9.84375 Z M 5.046875 -10.390625 C 3.941406 -10.222656 3.050781 -9.707031 2.375 -8.84375 C 1.707031 -7.976562 1.453125 -6.992188 1.609375 -5.890625 C 1.773438 -4.796875 2.304688 -3.921875 3.203125 -3.265625 C 4.109375 -2.617188 5.101562 -2.375 6.1875 -2.53125 C 7.269531 -2.695312 8.140625 -3.21875 8.796875 -4.09375 C 9.460938 -4.976562 9.710938 -5.96875 9.546875 -7.0625 C 9.390625 -8.164062 8.867188 -9.035156 7.984375 -9.671875 C 7.097656 -10.304688 6.117188 -10.546875 5.046875 -10.390625 Z M 5.046875 -10.390625 "/></g></g></g><g fill="#050a30" fill-opacity="1"><g transform="translate(208.094924, 265.145026)"><g><path d="M 10.5625 -3.6875 L 8.8125 -3.0625 L 0.53125 -8.6875 L 3.171875 -1.109375 L 1.390625 -0.484375 L -2.296875 -11.0625 L -0.546875 -11.671875 L 7.78125 -6.046875 L 5.125 -13.640625 L 6.875 -14.265625 Z M 10.5625 -3.6875 "/></g></g></g><g fill="#050a30" fill-opacity="1"><g transform="translate(221.708762, 259.982872)"><g/></g></g><g fill="#050a30" fill-opacity="1"><g transform="translate(226.978351, 257.368568)"><g><path d="M 1.921875 -3.25 L 6 -5.84375 L 6.921875 -4.390625 L 1.234375 -0.78125 L -4.765625 -10.234375 L -3.15625 -11.25 Z M 1.921875 -3.25 "/></g></g></g><g fill="#050a30" fill-opacity="1"><g transform="translate(235.925139, 251.672204)"><g><path d="M 0.859375 -15.671875 L 5.1875 -10.734375 C 6.144531 -9.640625 6.578125 -8.488281 6.484375 -7.28125 C 6.398438 -6.082031 5.789062 -4.984375 4.65625 -3.984375 C 3.519531 -2.984375 2.34375 -2.515625 1.125 -2.578125 C -0.0820312 -2.640625 -1.164062 -3.21875 -2.125 -4.3125 L -6.453125 -9.25 L -5.03125 -10.5 L -0.703125 -5.5625 C -0.0859375 -4.851562 0.597656 -4.472656 1.359375 -4.421875 C 2.117188 -4.367188 2.847656 -4.644531 3.546875 -5.25 C 4.234375 -5.851562 4.597656 -6.535156 4.640625 -7.296875 C 4.691406 -8.054688 4.40625 -8.789062 3.78125 -9.5 L -0.546875 -14.4375 Z M 0.859375 -15.671875 "/></g></g></g><g fill="#050a30" fill-opacity="1"><g transform="translate(246.54272, 242.017431)"><g><path d="M -1.390625 -13.9375 L 0.65625 -3.53125 L 4.984375 -8.890625 L 6.3125 -7.8125 L 0.375 -0.46875 L -0.6875 -1.328125 L -2.71875 -11.734375 L -6.890625 -6.59375 L -8.203125 -7.671875 L -2.4375 -14.796875 Z M -1.390625 -13.9375 "/></g></g></g><g clip-path="url(#b8997bbf90)"><path fill="#02c1c1" d="M 240.8125 203.5625 C 240.894531 203.242188 240.972656 202.925781 241.050781 202.605469 C 241.703125 199.410156 240.773438 196.832031 239.859375 196.5625 C 238.855469 196.269531 237.730469 198.652344 237.730469 198.652344 C 226.648438 222.144531 210.921875 227.722656 210.921875 227.722656 C 227.042969 215.847656 224.867188 212.667969 222.949219 211.300781 C 221.027344 209.933594 217.03125 214.304688 212.695312 217.695312 C 209.25 220.394531 203.035156 218.679688 203.035156 218.679688 C 189.578125 216.296875 179.167969 227.210938 179.167969 227.210938 C 172.894531 234.640625 160.183594 227.914062 160.183594 227.914062 C 136.539062 217.84375 132.902344 191.289062 132.902344 191.289062 C 133.175781 201.664062 136.394531 212.078125 142.785156 221.222656 C 160.144531 246.042969 194.332031 252.09375 219.152344 234.734375 C 230.296875 226.949219 237.65625 215.765625 240.8125 203.5625 Z M 240.8125 203.5625 " fill-opacity="1" fill-rule="nonzero"/></g><g clip-path="url(#d3312f9893)"><path fill="#309f00" d="M 133.957031 172.355469 C 133.878906 172.675781 133.808594 172.996094 133.738281 173.316406 C 133.148438 176.523438 134.128906 179.085938 135.050781 179.335938 C 136.058594 179.609375 137.136719 177.207031 137.136719 177.207031 C 147.746094 153.492188 163.359375 147.609375 163.359375 147.609375 C 147.476562 159.800781 149.714844 162.933594 151.660156 164.261719 C 153.609375 165.59375 157.519531 161.144531 161.78125 157.664062 C 165.175781 154.898438 171.425781 156.492188 171.425781 156.492188 C 184.925781 158.605469 195.117188 147.480469 195.117188 147.480469 C 201.242188 139.929688 214.082031 146.402344 214.082031 146.402344 C 237.925781 156.003906 242.085938 182.480469 242.085938 182.480469 C 241.609375 172.109375 238.183594 161.761719 231.609375 152.746094 C 213.765625 128.277344 179.460938 122.90625 154.992188 140.753906 C 144.007812 148.765625 136.871094 160.089844 133.957031 172.355469 Z M 133.957031 172.355469 " fill-opacity="1" fill-rule="nonzero"/></g><path fill="#345e7d" d="M 218.828125 204.125 C 216.640625 200.085938 215.464844 195.183594 215.035156 193.09375 C 214.328125 189.457031 213.507812 184.894531 213.324219 183.972656 C 213.023438 182.46875 214.628906 176.839844 213.324219 176.238281 C 212.019531 175.636719 208 180.457031 208 180.457031 C 206.796875 179.855469 204.585938 180.457031 204.585938 180.457031 C 204.585938 180.457031 202.679688 173.324219 201.070312 173.324219 C 199.464844 173.324219 198.460938 181.261719 198.460938 181.261719 C 196.652344 181.058594 193.539062 183.371094 193.539062 185.480469 C 193.539062 189.398438 191.730469 189.5 190.925781 190.304688 C 190.121094 191.105469 190.625 193.214844 191.527344 195.726562 C 192.433594 198.238281 195.347656 198.039062 196.953125 198.441406 C 197.800781 198.652344 198.03125 199.648438 198.0625 200.539062 C 198.027344 200.941406 198 201.371094 197.996094 201.8125 C 197.984375 203.191406 197.28125 204.191406 196.910156 204.625 C 196.636719 204.855469 196.335938 205.121094 196.335938 205.121094 C 192.773438 207.976562 191.910156 213.800781 191.726562 217.046875 C 193.453125 216.691406 197.460938 216.164062 199.164062 216.164062 C 200.585938 216.164062 202.015625 216.292969 203.414062 216.539062 L 203.523438 216.558594 L 203.613281 216.585938 C 203.679688 216.601562 205.363281 217.046875 207.308594 217.046875 C 208.539062 217.046875 210.242188 216.863281 211.359375 215.988281 C 212.371094 215.195312 213.378906 214.339844 214.351562 213.507812 C 217.273438 211.015625 219.601562 209.023438 221.851562 208.878906 C 220.714844 207.152344 219.671875 205.496094 218.828125 204.125 Z M 218.828125 204.125 " fill-opacity="1" fill-rule="nonzero"/><path fill="#345e7d" d="M 182.296875 195.078125 C 181.425781 191.5 181.5 187.03125 181.503906 187.015625 C 181.730469 184.761719 182.929688 183.800781 188.601562 182.449219 C 195.078125 180.90625 194.964844 171.894531 194.722656 168.726562 C 194.722656 168.726562 194.636719 168.21875 194.417969 168.046875 C 194.199219 167.878906 193.59375 168 193.59375 168 C 189.195312 169.367188 182.601562 168.5625 182.601562 168.5625 C 178.503906 161.710938 174.203125 161.191406 170.175781 161.585938 C 166.140625 161.980469 153.417969 171.941406 156.183594 175.972656 C 158.949219 180 165.355469 183.742188 167.882812 183.875 C 170.554688 184.015625 169.417969 177.15625 169.417969 177.15625 C 168.859375 173.503906 168.269531 171.574219 168.140625 170 C 167.929688 167.308594 171.195312 166.921875 171.195312 166.921875 C 168.113281 167.496094 169.144531 170.753906 169.144531 170.753906 C 172.050781 183.203125 170.527344 183.964844 168.050781 184.695312 C 165.707031 185.382812 159.707031 181.160156 159.707031 181.160156 C 159.707031 181.160156 159.722656 182.261719 159.742188 183.660156 C 159.765625 192.121094 157.03125 197.457031 156.320312 198.707031 C 156.261719 198.800781 156.210938 198.890625 156.15625 198.984375 C 156.15625 198.984375 156.148438 198.992188 156.148438 198.992188 C 155.441406 200.179688 154.746094 201.328125 154.199219 202.171875 C 153.234375 203.664062 148.980469 209.101562 145.238281 213.828125 C 149.523438 219.214844 154.808594 223.261719 161.039062 225.917969 L 161.121094 225.953125 L 161.203125 225.996094 C 161.25 226.019531 166.089844 228.535156 170.890625 228.53125 C 173.796875 228.53125 175.960938 227.640625 177.507812 225.808594 L 177.550781 225.757812 L 177.597656 225.710938 C 177.691406 225.613281 179.945312 223.265625 183.691406 220.929688 C 185.375 219.878906 187.097656 218.996094 188.839844 218.28125 C 192.101562 213.910156 186.515625 205.828125 185.945312 204.953125 C 184.394531 202.574219 182.960938 197.601562 182.296875 195.078125 Z M 182.296875 195.078125 " fill-opacity="1" fill-rule="nonzero"/></svg>