<svg xmlns="http://www.w3.org/2000/svg" xmlns:xlink="http://www.w3.org/1999/xlink" width="250" zoomAndPan="magnify" viewBox="0 0 187.5 74.999997" height="100" preserveAspectRatio="xMidYMid meet" version="1.0"><defs><g/><clipPath id="6accad3435"><path d="M 0 0.101562 L 187 0.101562 L 187 74.898438 L 0 74.898438 Z M 0 0.101562 " clip-rule="nonzero"/></clipPath><clipPath id="7d53d8135d"><path d="M 0 0.101562 L 74.800781 0.101562 L 74.800781 74.898438 L 0 74.898438 Z M 0 0.101562 " clip-rule="nonzero"/></clipPath><clipPath id="394fb9fd18"><path d="M 37.398438 74.898438 C 27.414062 74.898438 18.011719 71.015625 10.957031 63.941406 C 3.886719 56.886719 0 47.484375 0 37.5 C 0 27.515625 3.886719 18.113281 10.957031 11.058594 C 18.011719 3.984375 27.414062 0.101562 37.398438 0.101562 C 47.386719 0.101562 56.789062 3.984375 63.84375 11.058594 C 70.914062 18.128906 74.800781 27.515625 74.800781 37.5 C 74.800781 47.484375 70.914062 56.886719 63.84375 63.941406 C 56.789062 71.015625 47.386719 74.898438 37.398438 74.898438 Z M 37.398438 2.34375 C 28.011719 2.34375 19.179688 6.003906 12.542969 12.640625 C 5.90625 19.277344 2.242188 28.113281 2.242188 37.5 C 2.242188 46.886719 5.90625 55.722656 12.542969 62.359375 C 19.179688 68.996094 28.011719 72.65625 37.398438 72.65625 C 46.789062 72.65625 55.621094 68.996094 62.257812 62.359375 C 68.894531 55.722656 72.558594 46.886719 72.558594 37.5 C 72.558594 28.113281 68.894531 19.277344 62.257812 12.640625 C 55.621094 6.003906 46.789062 2.34375 37.398438 2.34375 Z M 37.398438 2.34375 " clip-rule="nonzero"/></clipPath><clipPath id="3f00601348"><path d="M 7.183594 40.261719 L 10.527344 40.261719 L 10.527344 43.605469 L 7.183594 43.605469 Z M 7.183594 40.261719 " clip-rule="nonzero"/></clipPath><clipPath id="8e2629d285"><path d="M 8.855469 40.261719 C 7.929688 40.261719 7.183594 41.011719 7.183594 41.933594 C 7.183594 42.855469 7.929688 43.605469 8.855469 43.605469 C 9.777344 43.605469 10.527344 42.855469 10.527344 41.933594 C 10.527344 41.011719 9.777344 40.261719 8.855469 40.261719 Z M 8.855469 40.261719 " clip-rule="nonzero"/></clipPath><clipPath id="0d9735cc35"><path d="M 64.273438 40.261719 L 67.617188 40.261719 L 67.617188 43.605469 L 64.273438 43.605469 Z M 64.273438 40.261719 " clip-rule="nonzero"/></clipPath><clipPath id="e926178c09"><path d="M 65.945312 40.261719 C 65.023438 40.261719 64.273438 41.011719 64.273438 41.933594 C 64.273438 42.855469 65.023438 43.605469 65.945312 43.605469 C 66.867188 43.605469 67.617188 42.855469 67.617188 41.933594 C 67.617188 41.011719 66.867188 40.261719 65.945312 40.261719 Z M 65.945312 40.261719 " clip-rule="nonzero"/></clipPath><clipPath id="6af9fc5346"><path d="M 16.234375 38 L 58.871094 38 L 58.871094 60 L 16.234375 60 Z M 16.234375 38 " clip-rule="nonzero"/></clipPath><clipPath id="02b7860077"><path d="M 16.234375 15 L 58.871094 15 L 58.871094 36 L 16.234375 36 Z M 16.234375 15 " clip-rule="nonzero"/></clipPath><clipPath id="b03e3bb971"><path d="M 119.15625 9.390625 L 149.078125 9.390625 L 149.078125 39.3125 L 119.15625 39.3125 Z M 119.15625 9.390625 " clip-rule="nonzero"/></clipPath></defs><g clip-path="url(#6accad3435)"><path fill="#ffffff" d="M 0 0.101562 L 187 0.101562 L 187 74.898438 L 0 74.898438 Z M 0 0.101562 " fill-opacity="1" fill-rule="nonzero"/><path fill="#ffffff" d="M 0 0.101562 L 187 0.101562 L 187 74.898438 L 0 74.898438 Z M 0 0.101562 " fill-opacity="1" fill-rule="nonzero"/></g><g clip-path="url(#7d53d8135d)"><g clip-path="url(#394fb9fd18)"><path fill="#050a30" d="M 0 0.101562 L 74.800781 0.101562 L 74.800781 74.898438 L 0 74.898438 Z M 0 0.101562 " fill-opacity="1" fill-rule="nonzero"/></g></g><g clip-path="url(#3f00601348)"><g clip-path="url(#8e2629d285)"><path fill="#050a30" d="M 7.183594 40.261719 L 10.527344 40.261719 L 10.527344 43.605469 L 7.183594 43.605469 Z M 7.183594 40.261719 " fill-opacity="1" fill-rule="nonzero"/></g></g><g clip-path="url(#0d9735cc35)"><g clip-path="url(#e926178c09)"><path fill="#050a30" d="M 64.273438 40.261719 L 67.617188 40.261719 L 67.617188 43.605469 L 64.273438 43.605469 Z M 64.273438 40.261719 " fill-opacity="1" fill-rule="nonzero"/></g></g><g fill="#050a30" fill-opacity="1"><g transform="translate(13.393039, 26.938525)"><g><path d="M 1.734375 -3.078125 L 1.03125 -1.828125 L -4.71875 -2.671875 L -4 -3.953125 L 0.15625 -3.1875 L -2.625 -6.359375 L -1.921875 -7.59375 Z M 1.734375 -3.078125 "/></g></g></g><g fill="#050a30" fill-opacity="1"><g transform="translate(16.508702, 21.613613)"><g><path d="M 0.046875 -6.46875 L -1.90625 -4.359375 L -1.109375 -3.625 L 0.65625 -5.53125 L 1.46875 -4.796875 L -0.296875 -2.890625 L 0.5 -2.15625 L 2.5 -4.328125 L 3.296875 -3.59375 L 0.375 -0.40625 L -3.609375 -4.078125 L -0.734375 -7.203125 Z M 0.046875 -6.46875 "/></g></g></g><g fill="#050a30" fill-opacity="1"><g transform="translate(20.485234, 17.413433)"><g><path d="M 1.34375 -6.21875 L 0 -5.28125 L 2.484375 -1.765625 L 1.359375 -0.96875 L -1.125 -4.484375 L -2.453125 -3.546875 L -3.109375 -4.46875 L 0.6875 -7.140625 Z M 1.34375 -6.21875 "/></g></g></g><g fill="#050a30" fill-opacity="1"><g transform="translate(24.831022, 14.377666)"><g><path d="M 2.703125 -5.890625 L 0.0625 -4.75 L 0.484375 -3.75 L 2.875 -4.78125 L 3.296875 -3.78125 L 0.90625 -2.75 L 1.34375 -1.734375 L 4.0625 -2.90625 L 4.484375 -1.921875 L 0.5 -0.21875 L -1.640625 -5.203125 L 2.265625 -6.875 Z M 2.703125 -5.890625 "/></g></g></g><g fill="#050a30" fill-opacity="1"><g transform="translate(30.131198, 12.149762)"><g><path d="M 3.75 -0.671875 L 2.6875 -2.03125 L 2.65625 -2.03125 L 1.625 -1.84375 L 1.890625 -0.34375 L 0.53125 -0.09375 L -0.421875 -5.4375 L 1.96875 -5.875 C 2.675781 -6 3.25 -5.929688 3.6875 -5.671875 C 4.132812 -5.421875 4.410156 -4.992188 4.515625 -4.390625 C 4.660156 -3.578125 4.441406 -2.953125 3.859375 -2.515625 L 5.296875 -0.953125 Z M 1.421875 -2.90625 L 2.453125 -3.09375 C 2.753906 -3.144531 2.96875 -3.257812 3.09375 -3.4375 C 3.226562 -3.613281 3.273438 -3.835938 3.234375 -4.109375 C 3.179688 -4.390625 3.0625 -4.585938 2.875 -4.703125 C 2.695312 -4.828125 2.457031 -4.863281 2.15625 -4.8125 L 1.125 -4.625 Z M 1.421875 -2.90625 "/></g></g></g><g fill="#050a30" fill-opacity="1"><g transform="translate(36.316234, 11.238974)"><g><path d="M 1.921875 0 L 0.546875 0 L 0.546875 -5.421875 L 1.921875 -5.421875 Z M 1.921875 0 "/></g></g></g><g fill="#050a30" fill-opacity="1"><g transform="translate(39.42405, 11.132662)"><g><path d="M 5.453125 1.046875 L 4.25 0.8125 L 2.4375 -2.9375 L 1.8125 0.34375 L 0.53125 0.109375 L 1.546875 -5.21875 L 2.75 -5 L 4.578125 -1.25 L 5.203125 -4.53125 L 6.46875 -4.28125 Z M 5.453125 1.046875 "/></g></g></g><g fill="#050a30" fill-opacity="1"><g transform="translate(45.855485, 12.426897)"><g><path d="M 4.171875 0.84375 L 2.03125 -0.15625 L 1.25 0.578125 L -0.03125 -0.015625 L 4.375 -3.9375 L 5.671875 -3.328125 L 5.4375 2.53125 L 4.109375 1.921875 Z M 4.265625 -0.28125 L 4.390625 -2.421875 L 2.828125 -0.9375 Z M 4.265625 -0.28125 "/></g></g></g><g fill="#050a30" fill-opacity="1"><g transform="translate(51.672743, 15.226459)"><g><path d="M 2.96875 2.390625 L 3.296875 0.6875 L 3.265625 0.671875 L 2.453125 0.015625 L 1.5 1.203125 L 0.421875 0.34375 L 3.8125 -3.890625 L 5.703125 -2.375 C 6.265625 -1.925781 6.597656 -1.453125 6.703125 -0.953125 C 6.804688 -0.453125 6.664062 0.0351562 6.28125 0.515625 C 5.757812 1.160156 5.140625 1.398438 4.421875 1.234375 L 4.1875 3.359375 Z M 3.125 -0.828125 L 3.9375 -0.171875 C 4.175781 0.015625 4.40625 0.0976562 4.625 0.078125 C 4.851562 0.0546875 5.050781 -0.0625 5.21875 -0.28125 C 5.394531 -0.5 5.46875 -0.710938 5.4375 -0.921875 C 5.40625 -1.140625 5.269531 -1.34375 5.03125 -1.53125 L 4.21875 -2.1875 Z M 3.125 -0.828125 "/></g></g></g><g fill="#050a30" fill-opacity="1"><g transform="translate(56.42412, 19.289832)"><g><path d="M 1.265625 1.453125 L 0.359375 0.40625 L 4.453125 -3.15625 L 5.359375 -2.109375 Z M 1.265625 1.453125 "/></g></g></g><g fill="#050a30" fill-opacity="1"><g transform="translate(58.550312, 21.551414)"><g><path d="M 6.296875 -0.0625 C 6.722656 0.664062 6.84375 1.40625 6.65625 2.15625 C 6.476562 2.90625 6.050781 3.476562 5.375 3.875 C 4.695312 4.269531 3.988281 4.359375 3.25 4.140625 C 2.519531 3.921875 1.941406 3.445312 1.515625 2.71875 C 1.097656 2 0.976562 1.265625 1.15625 0.515625 C 1.332031 -0.234375 1.757812 -0.804688 2.4375 -1.203125 C 3.125 -1.609375 3.832031 -1.695312 4.5625 -1.46875 C 5.300781 -1.25 5.878906 -0.78125 6.296875 -0.0625 Z M 5.296875 0.53125 C 5.085938 0.164062 4.773438 -0.0664062 4.359375 -0.171875 C 3.941406 -0.273438 3.535156 -0.210938 3.140625 0.015625 C 2.742188 0.242188 2.488281 0.566406 2.375 0.984375 C 2.257812 1.398438 2.304688 1.789062 2.515625 2.15625 C 2.734375 2.519531 3.046875 2.75 3.453125 2.84375 C 3.867188 2.945312 4.273438 2.882812 4.671875 2.65625 C 5.066406 2.425781 5.320312 2.101562 5.4375 1.6875 C 5.5625 1.28125 5.515625 0.894531 5.296875 0.53125 Z M 5.296875 0.53125 "/></g></g></g><g fill="#050a30" fill-opacity="1"><g transform="translate(12.157444, 55.445038)"><g><path d="M 2.90625 1.984375 L 1.515625 0.296875 L 0.484375 0.59375 L 0 0 L 4.578125 -1.265625 L 5.0625 -0.6875 L 2.90625 3.53125 L 2.40625 2.9375 Z M 3.21875 1.359375 L 4.203125 -0.5 L 2.171875 0.09375 Z M 3.21875 1.359375 "/></g></g></g><g fill="#050a30" fill-opacity="1"><g transform="translate(15.652385, 59.600585)"><g><path d="M 3.3125 2.8125 L 2.75 2.328125 L 3 -1.53125 L 0.984375 0.84375 L 0.4375 0.375 L 3.25 -2.9375 L 3.796875 -2.46875 L 3.53125 1.390625 L 5.5625 -0.984375 L 6.125 -0.5 Z M 3.3125 2.8125 "/></g></g></g><g fill="#050a30" fill-opacity="1"><g transform="translate(20.111821, 63.266427)"><g><path d="M 2.65625 -3.5 L 4.1875 -2.625 C 4.757812 -2.300781 5.125 -1.851562 5.28125 -1.28125 C 5.445312 -0.707031 5.375 -0.148438 5.0625 0.390625 C 4.75 0.929688 4.304688 1.273438 3.734375 1.421875 C 3.160156 1.566406 2.585938 1.476562 2.015625 1.15625 L 0.5 0.28125 Z M 2.953125 -2.5625 L 1.453125 0.078125 L 2.390625 0.609375 C 2.765625 0.828125 3.144531 0.878906 3.53125 0.765625 C 3.914062 0.660156 4.21875 0.414062 4.4375 0.03125 C 4.65625 -0.351562 4.707031 -0.738281 4.59375 -1.125 C 4.476562 -1.519531 4.234375 -1.828125 3.859375 -2.046875 Z M 2.953125 -2.5625 "/></g></g></g><g fill="#050a30" fill-opacity="1"><g transform="translate(25.054868, 65.965844)"><g><path d="M 4.703125 -2.21875 L 2.46875 -3.03125 L 2.078125 -1.921875 L 4.078125 -1.1875 L 3.859375 -0.578125 L 1.859375 -1.3125 L 1.4375 -0.171875 L 3.75 0.671875 L 3.53125 1.28125 L 0.546875 0.203125 L 2.03125 -3.875 L 4.9375 -2.828125 Z M 4.703125 -2.21875 "/></g></g></g><g fill="#050a30" fill-opacity="1"><g transform="translate(29.663898, 67.585215)"><g><path d="M 3.265625 0.609375 L 2.71875 -0.828125 C 2.675781 -0.835938 2.609375 -0.851562 2.515625 -0.875 L 1.515625 -1.0625 L 1.28125 0.234375 L 0.5625 0.109375 L 1.359375 -4.15625 L 3.078125 -3.84375 C 3.628906 -3.738281 4.03125 -3.53125 4.28125 -3.21875 C 4.539062 -2.90625 4.625 -2.519531 4.53125 -2.0625 C 4.46875 -1.71875 4.335938 -1.441406 4.140625 -1.234375 C 3.941406 -1.035156 3.695312 -0.90625 3.40625 -0.84375 L 4.09375 0.765625 Z M 1.640625 -1.703125 L 2.640625 -1.515625 C 3.335938 -1.378906 3.738281 -1.597656 3.84375 -2.171875 C 3.945312 -2.722656 3.648438 -3.066406 2.953125 -3.203125 L 1.953125 -3.390625 Z M 1.640625 -1.703125 "/></g></g></g><g fill="#050a30" fill-opacity="1"><g transform="translate(34.88021, 68.463103)"><g><path d="M 2.09375 -4.328125 C 2.65625 -4.316406 3.160156 -4.15625 3.609375 -3.84375 L 3.296875 -3.203125 C 2.847656 -3.484375 2.421875 -3.628906 2.015625 -3.640625 C 1.796875 -3.648438 1.625 -3.613281 1.5 -3.53125 C 1.375 -3.457031 1.304688 -3.347656 1.296875 -3.203125 C 1.296875 -3.054688 1.351562 -2.929688 1.46875 -2.828125 C 1.582031 -2.722656 1.726562 -2.644531 1.90625 -2.59375 C 2.082031 -2.539062 2.265625 -2.472656 2.453125 -2.390625 C 2.648438 -2.316406 2.835938 -2.238281 3.015625 -2.15625 C 3.191406 -2.070312 3.332031 -1.941406 3.4375 -1.765625 C 3.550781 -1.597656 3.609375 -1.394531 3.609375 -1.15625 C 3.597656 -0.769531 3.4375 -0.460938 3.125 -0.234375 C 2.8125 -0.015625 2.414062 0.0859375 1.9375 0.078125 C 1.601562 0.0664062 1.285156 0 0.984375 -0.125 C 0.679688 -0.257812 0.410156 -0.4375 0.171875 -0.65625 L 0.515625 -1.28125 C 0.722656 -1.082031 0.957031 -0.921875 1.21875 -0.796875 C 1.476562 -0.679688 1.726562 -0.617188 1.96875 -0.609375 C 2.21875 -0.609375 2.414062 -0.648438 2.5625 -0.734375 C 2.707031 -0.828125 2.785156 -0.957031 2.796875 -1.125 C 2.796875 -1.28125 2.738281 -1.40625 2.625 -1.5 C 2.507812 -1.601562 2.363281 -1.679688 2.1875 -1.734375 C 2.019531 -1.785156 1.832031 -1.847656 1.625 -1.921875 C 1.425781 -1.992188 1.238281 -2.070312 1.0625 -2.15625 C 0.894531 -2.238281 0.753906 -2.363281 0.640625 -2.53125 C 0.535156 -2.695312 0.488281 -2.898438 0.5 -3.140625 C 0.5 -3.515625 0.644531 -3.804688 0.9375 -4.015625 C 1.226562 -4.234375 1.613281 -4.335938 2.09375 -4.328125 Z M 2.09375 -4.328125 "/></g></g></g><g fill="#050a30" fill-opacity="1"><g transform="translate(39.56901, 68.550385)"><g><path d="M 0.3125 -3.8125 C 0.6875 -4.289062 1.195312 -4.578125 1.84375 -4.671875 C 2.488281 -4.773438 3.0625 -4.648438 3.5625 -4.296875 C 4.0625 -3.953125 4.351562 -3.46875 4.4375 -2.84375 C 4.53125 -2.226562 4.390625 -1.679688 4.015625 -1.203125 C 3.640625 -0.722656 3.128906 -0.429688 2.484375 -0.328125 C 1.835938 -0.234375 1.265625 -0.363281 0.765625 -0.71875 C 0.265625 -1.070312 -0.0234375 -1.554688 -0.109375 -2.171875 C -0.203125 -2.796875 -0.0625 -3.34375 0.3125 -3.8125 Z M 1.9375 -4.03125 C 1.519531 -3.96875 1.179688 -3.765625 0.921875 -3.421875 C 0.660156 -3.085938 0.5625 -2.707031 0.625 -2.28125 C 0.6875 -1.863281 0.890625 -1.53125 1.234375 -1.28125 C 1.585938 -1.03125 1.972656 -0.9375 2.390625 -1 C 2.816406 -1.0625 3.15625 -1.257812 3.40625 -1.59375 C 3.664062 -1.9375 3.765625 -2.316406 3.703125 -2.734375 C 3.640625 -3.160156 3.4375 -3.5 3.09375 -3.75 C 2.75 -4 2.363281 -4.09375 1.9375 -4.03125 Z M 1.9375 -4.03125 "/></g></g></g><g fill="#050a30" fill-opacity="1"><g transform="translate(45.384728, 67.602254)"><g><path d="M 4.109375 -1.421875 L 3.40625 -1.1875 L 0.203125 -3.359375 L 1.21875 -0.421875 L 0.546875 -0.1875 L -0.875 -4.296875 L -0.203125 -4.53125 L 3 -2.34375 L 1.984375 -5.296875 L 2.6875 -5.53125 Z M 4.109375 -1.421875 "/></g></g></g><g fill="#050a30" fill-opacity="1"><g transform="translate(50.6627, 65.600942)"><g/></g></g><g fill="#050a30" fill-opacity="1"><g transform="translate(52.705666, 64.587394)"><g><path d="M 0.75 -1.234375 L 2.34375 -2.25 L 2.6875 -1.703125 L 0.484375 -0.3125 L -1.84375 -3.984375 L -1.234375 -4.359375 Z M 0.75 -1.234375 "/></g></g></g><g fill="#050a30" fill-opacity="1"><g transform="translate(56.174243, 62.378969)"><g><path d="M 0.328125 -6.078125 L 2.015625 -4.15625 C 2.390625 -3.738281 2.554688 -3.289062 2.515625 -2.8125 C 2.472656 -2.34375 2.234375 -1.914062 1.796875 -1.53125 C 1.359375 -1.144531 0.90625 -0.960938 0.4375 -0.984375 C -0.03125 -1.015625 -0.453125 -1.238281 -0.828125 -1.65625 L -2.515625 -3.578125 L -1.953125 -4.0625 L -0.265625 -2.140625 C -0.0234375 -1.867188 0.238281 -1.722656 0.53125 -1.703125 C 0.832031 -1.691406 1.113281 -1.800781 1.375 -2.03125 C 1.644531 -2.269531 1.785156 -2.535156 1.796875 -2.828125 C 1.816406 -3.117188 1.707031 -3.398438 1.46875 -3.671875 L -0.21875 -5.59375 Z M 0.328125 -6.078125 "/></g></g></g><g fill="#050a30" fill-opacity="1"><g transform="translate(60.290589, 58.635903)"><g><path d="M -0.546875 -5.390625 L 0.25 -1.359375 L 1.9375 -3.4375 L 2.453125 -3.03125 L 0.140625 -0.1875 L -0.265625 -0.515625 L -1.046875 -4.546875 L -2.65625 -2.5625 L -3.171875 -2.984375 L -0.953125 -5.734375 Z M -0.546875 -5.390625 "/></g></g></g><g clip-path="url(#6af9fc5346)"><path fill="#02c1c1" d="M 58.070312 43.722656 C 58.105469 43.601562 58.132812 43.476562 58.164062 43.355469 C 58.417969 42.113281 58.054688 41.117188 57.703125 41.011719 C 57.3125 40.898438 56.875 41.820312 56.875 41.820312 C 52.582031 50.929688 46.484375 53.089844 46.484375 53.089844 C 52.734375 48.488281 51.890625 47.253906 51.144531 46.726562 C 50.402344 46.195312 48.851562 47.890625 47.171875 49.207031 C 45.835938 50.25 43.425781 49.585938 43.425781 49.585938 C 38.207031 48.660156 34.171875 52.894531 34.171875 52.894531 C 31.738281 55.773438 26.8125 53.167969 26.8125 53.167969 C 17.644531 49.261719 16.234375 38.964844 16.234375 38.964844 C 16.339844 42.988281 17.585938 47.027344 20.066406 50.570312 C 26.792969 60.195312 40.050781 62.539062 49.675781 55.8125 C 53.996094 52.792969 56.847656 48.457031 58.070312 43.722656 Z M 58.070312 43.722656 " fill-opacity="1" fill-rule="nonzero"/></g><g clip-path="url(#02b7860077)"><path fill="#309f00" d="M 16.640625 31.625 C 16.613281 31.75 16.585938 31.875 16.558594 31.996094 C 16.328125 33.242188 16.710938 34.234375 17.066406 34.332031 C 17.457031 34.4375 17.875 33.503906 17.875 33.503906 C 21.988281 24.3125 28.042969 22.03125 28.042969 22.03125 C 21.882812 26.757812 22.75 27.972656 23.507812 28.488281 C 24.261719 29.003906 25.777344 27.277344 27.429688 25.929688 C 28.746094 24.855469 31.167969 25.472656 31.167969 25.472656 C 36.402344 26.292969 40.355469 21.980469 40.355469 21.980469 C 42.730469 19.054688 47.707031 21.5625 47.707031 21.5625 C 56.953125 25.285156 58.566406 35.550781 58.566406 35.550781 C 58.378906 31.53125 57.054688 27.519531 54.503906 24.023438 C 47.585938 14.535156 34.285156 12.453125 24.796875 19.375 C 20.539062 22.480469 17.773438 26.871094 16.640625 31.625 Z M 16.640625 31.625 " fill-opacity="1" fill-rule="nonzero"/></g><path fill="#345e7d" d="M 49.546875 43.941406 C 48.699219 42.378906 48.246094 40.476562 48.078125 39.664062 C 47.804688 38.253906 47.484375 36.488281 47.414062 36.128906 C 47.296875 35.546875 47.921875 33.363281 47.414062 33.132812 C 46.90625 32.898438 45.351562 34.765625 45.351562 34.765625 C 44.882812 34.53125 44.027344 34.765625 44.027344 34.765625 C 44.027344 34.765625 43.285156 32 42.664062 32 C 42.039062 32 41.652344 35.078125 41.652344 35.078125 C 40.949219 35 39.742188 35.894531 39.742188 36.714844 C 39.742188 38.234375 39.042969 38.273438 38.730469 38.585938 C 38.417969 38.894531 38.613281 39.714844 38.964844 40.6875 C 39.316406 41.660156 40.445312 41.582031 41.066406 41.738281 C 41.394531 41.820312 41.484375 42.207031 41.496094 42.554688 C 41.484375 42.710938 41.472656 42.875 41.472656 43.046875 C 41.464844 43.582031 41.195312 43.96875 41.050781 44.136719 C 40.945312 44.226562 40.828125 44.328125 40.828125 44.328125 C 39.445312 45.4375 39.113281 47.695312 39.039062 48.953125 C 39.710938 48.816406 41.261719 48.613281 41.921875 48.613281 C 42.476562 48.613281 43.03125 48.660156 43.574219 48.757812 L 43.613281 48.765625 L 43.648438 48.773438 C 43.675781 48.78125 44.328125 48.953125 45.082031 48.953125 C 45.558594 48.953125 46.21875 48.882812 46.652344 48.542969 C 47.046875 48.234375 47.433594 47.902344 47.8125 47.582031 C 48.945312 46.613281 49.847656 45.84375 50.71875 45.785156 C 50.277344 45.117188 49.875 44.476562 49.546875 43.941406 Z M 49.546875 43.941406 " fill-opacity="1" fill-rule="nonzero"/><path fill="#345e7d" d="M 35.382812 40.433594 C 35.046875 39.046875 35.074219 37.316406 35.078125 37.308594 C 35.164062 36.4375 35.628906 36.0625 37.828125 35.539062 C 40.339844 34.941406 40.296875 31.445312 40.203125 30.21875 C 40.203125 30.21875 40.167969 30.019531 40.085938 29.957031 C 40 29.890625 39.765625 29.9375 39.765625 29.9375 C 38.058594 30.46875 35.503906 30.15625 35.503906 30.15625 C 33.914062 27.496094 32.246094 27.296875 30.683594 27.449219 C 29.121094 27.601562 24.1875 31.464844 25.257812 33.027344 C 26.332031 34.589844 28.816406 36.039062 29.796875 36.09375 C 30.832031 36.144531 30.390625 33.488281 30.390625 33.488281 C 30.175781 32.070312 29.945312 31.320312 29.894531 30.710938 C 29.8125 29.667969 31.078125 29.519531 31.078125 29.519531 C 29.886719 29.742188 30.285156 31.003906 30.285156 31.003906 C 31.414062 35.832031 30.820312 36.125 29.859375 36.410156 C 28.953125 36.675781 26.625 35.039062 26.625 35.039062 C 26.625 35.039062 26.632812 35.464844 26.640625 36.007812 C 26.648438 39.289062 25.589844 41.359375 25.3125 41.84375 C 25.289062 41.878906 25.269531 41.914062 25.25 41.949219 C 25.25 41.949219 25.246094 41.953125 25.246094 41.953125 C 24.972656 42.414062 24.703125 42.859375 24.488281 43.1875 C 24.117188 43.765625 22.46875 45.871094 21.015625 47.707031 C 22.675781 49.792969 24.726562 51.363281 27.140625 52.390625 L 27.175781 52.40625 L 27.207031 52.421875 C 27.222656 52.433594 29.101562 53.40625 30.960938 53.40625 C 32.089844 53.40625 32.929688 53.0625 33.527344 52.351562 L 33.542969 52.332031 L 33.5625 52.3125 C 33.597656 52.273438 34.472656 51.363281 35.925781 50.457031 C 36.578125 50.050781 37.246094 49.707031 37.921875 49.433594 C 39.1875 47.738281 37.019531 44.601562 36.800781 44.265625 C 36.199219 43.339844 35.640625 41.414062 35.382812 40.433594 Z M 35.382812 40.433594 " fill-opacity="1" fill-rule="nonzero"/><g clip-path="url(#b03e3bb971)"><path fill="#000000" d="M 148.183594 33.382812 C 148.785156 32.070312 149.085938 30.6875 149.078125 29.242188 C 149.078125 28.585938 149.011719 27.941406 148.886719 27.300781 C 148.757812 26.660156 148.570312 26.039062 148.320312 25.433594 C 148.070312 24.832031 147.765625 24.257812 147.402344 23.714844 C 147.039062 23.171875 146.625 22.667969 146.164062 22.207031 C 145.703125 21.746094 145.199219 21.332031 144.65625 20.972656 C 144.113281 20.609375 143.539062 20.300781 142.9375 20.050781 C 142.335938 19.800781 141.710938 19.613281 141.070312 19.484375 C 140.429688 19.359375 139.785156 19.292969 139.132812 19.292969 C 139.132812 18.640625 139.066406 17.996094 138.941406 17.355469 C 138.8125 16.714844 138.625 16.09375 138.375 15.488281 C 138.125 14.886719 137.816406 14.3125 137.457031 13.769531 C 137.09375 13.226562 136.679688 12.722656 136.21875 12.261719 C 135.757812 11.800781 135.253906 11.386719 134.710938 11.023438 C 134.167969 10.664062 133.59375 10.355469 132.992188 10.105469 C 132.386719 9.855469 131.765625 9.667969 131.125 9.539062 C 130.484375 9.414062 129.839844 9.347656 129.183594 9.347656 C 128.53125 9.347656 127.886719 9.414062 127.246094 9.539062 C 126.605469 9.667969 125.984375 9.855469 125.378906 10.105469 C 124.777344 10.355469 124.203125 10.664062 123.660156 11.023438 C 123.117188 11.386719 122.613281 11.800781 122.152344 12.261719 C 121.691406 12.722656 121.277344 13.226562 120.914062 13.769531 C 120.554688 14.3125 120.246094 14.886719 119.996094 15.488281 C 119.746094 16.09375 119.558594 16.714844 119.429688 17.355469 C 119.304688 17.996094 119.238281 18.640625 119.238281 19.292969 C 119.234375 20.742188 119.53125 22.125 120.136719 23.4375 L 119.238281 28.261719 C 119.21875 28.382812 119.222656 28.503906 119.253906 28.625 C 119.285156 28.746094 119.34375 28.851562 119.421875 28.949219 C 119.503906 29.042969 119.601562 29.117188 119.710938 29.167969 C 119.824219 29.21875 119.945312 29.242188 120.070312 29.242188 L 120.21875 29.242188 L 125.042969 28.34375 C 126.355469 28.949219 127.738281 29.246094 129.183594 29.242188 C 129.183594 29.894531 129.25 30.539062 129.375 31.179688 C 129.503906 31.820312 129.691406 32.441406 129.941406 33.046875 C 130.191406 33.648438 130.5 34.222656 130.863281 34.765625 C 131.222656 35.308594 131.636719 35.8125 132.097656 36.273438 C 132.558594 36.734375 133.0625 37.148438 133.605469 37.511719 C 134.148438 37.871094 134.722656 38.179688 135.324219 38.429688 C 135.929688 38.679688 136.550781 38.867188 137.191406 38.996094 C 137.832031 39.121094 138.476562 39.1875 139.132812 39.1875 C 140.578125 39.191406 141.960938 38.894531 143.273438 38.292969 L 148.097656 39.1875 L 148.25 39.1875 C 148.371094 39.1875 148.492188 39.164062 148.605469 39.113281 C 148.71875 39.0625 148.8125 38.988281 148.894531 38.894531 C 148.972656 38.796875 149.03125 38.691406 149.0625 38.570312 C 149.09375 38.453125 149.097656 38.332031 149.078125 38.207031 Z M 125.554688 26.753906 C 125.441406 26.699219 125.320312 26.671875 125.191406 26.671875 L 125.042969 26.671875 L 121.097656 27.390625 L 121.816406 23.4375 C 121.84375 23.257812 121.8125 23.085938 121.726562 22.925781 C 121.167969 21.78125 120.890625 20.570312 120.898438 19.292969 C 120.898438 18.75 120.949219 18.210938 121.058594 17.679688 C 121.164062 17.144531 121.320312 16.625 121.527344 16.121094 C 121.738281 15.621094 121.992188 15.144531 122.292969 14.691406 C 122.597656 14.238281 122.941406 13.820312 123.324219 13.433594 C 123.710938 13.050781 124.128906 12.707031 124.582031 12.402344 C 125.035156 12.101562 125.511719 11.847656 126.015625 11.636719 C 126.515625 11.429688 127.035156 11.273438 127.570312 11.164062 C 128.101562 11.058594 128.640625 11.007812 129.183594 11.007812 C 129.730469 11.007812 130.269531 11.058594 130.800781 11.164062 C 131.335938 11.273438 131.855469 11.429688 132.355469 11.636719 C 132.859375 11.847656 133.335938 12.101562 133.789062 12.402344 C 134.242188 12.707031 134.660156 13.050781 135.046875 13.433594 C 135.429688 13.820312 135.773438 14.238281 136.078125 14.691406 C 136.378906 15.144531 136.632812 15.621094 136.84375 16.121094 C 137.050781 16.625 137.207031 17.144531 137.3125 17.679688 C 137.421875 18.210938 137.472656 18.75 137.472656 19.292969 C 137.472656 19.839844 137.421875 20.378906 137.3125 20.910156 C 137.207031 21.445312 137.050781 21.964844 136.84375 22.464844 C 136.632812 22.96875 136.378906 23.445312 136.078125 23.898438 C 135.773438 24.351562 135.429688 24.769531 135.046875 25.15625 C 134.660156 25.539062 134.242188 25.882812 133.789062 26.1875 C 133.335938 26.488281 132.859375 26.742188 132.355469 26.953125 C 131.855469 27.160156 131.335938 27.316406 130.800781 27.421875 C 130.269531 27.53125 129.730469 27.582031 129.183594 27.582031 C 127.910156 27.589844 126.699219 27.3125 125.554688 26.753906 Z M 146.5 33.382812 L 147.21875 37.328125 L 143.273438 36.609375 C 143.097656 36.578125 142.925781 36.601562 142.761719 36.683594 C 141.617188 37.246094 140.40625 37.53125 139.132812 37.527344 C 138.585938 37.527344 138.046875 37.476562 137.515625 37.371094 C 136.980469 37.261719 136.460938 37.105469 135.960938 36.898438 C 135.457031 36.691406 134.980469 36.433594 134.527344 36.132812 C 134.074219 35.828125 133.65625 35.484375 133.269531 35.101562 C 132.886719 34.714844 132.542969 34.296875 132.238281 33.84375 C 131.9375 33.394531 131.683594 32.914062 131.472656 32.414062 C 131.265625 31.910156 131.109375 31.390625 131.003906 30.859375 C 130.894531 30.324219 130.84375 29.785156 130.84375 29.242188 L 130.84375 29.089844 C 131.859375 28.917969 132.824219 28.59375 133.742188 28.121094 C 134.65625 27.648438 135.480469 27.046875 136.210938 26.320312 C 136.9375 25.589844 137.539062 24.765625 138.011719 23.851562 C 138.488281 22.933594 138.808594 21.96875 138.980469 20.953125 L 139.132812 20.953125 C 139.675781 20.953125 140.214844 21.003906 140.75 21.113281 C 141.28125 21.21875 141.800781 21.375 142.304688 21.582031 C 142.804688 21.792969 143.285156 22.046875 143.734375 22.347656 C 144.1875 22.652344 144.605469 22.996094 144.992188 23.378906 C 145.375 23.765625 145.71875 24.183594 146.023438 24.636719 C 146.324219 25.089844 146.582031 25.566406 146.789062 26.070312 C 146.996094 26.570312 147.152344 27.089844 147.261719 27.625 C 147.367188 28.15625 147.417969 28.695312 147.417969 29.242188 C 147.425781 30.515625 147.148438 31.726562 146.589844 32.871094 C 146.503906 33.03125 146.472656 33.203125 146.5 33.382812 Z M 146.5 33.382812 " fill-opacity="1" fill-rule="nonzero"/></g><path fill="#000000" d="M 130.195312 15.332031 C 130.195312 15.46875 130.171875 15.597656 130.121094 15.71875 C 130.070312 15.84375 129.996094 15.953125 129.902344 16.046875 C 129.804688 16.144531 129.695312 16.214844 129.574219 16.265625 C 129.449219 16.320312 129.320312 16.34375 129.183594 16.34375 C 129.050781 16.34375 128.921875 16.320312 128.796875 16.265625 C 128.675781 16.214844 128.566406 16.144531 128.46875 16.046875 C 128.375 15.953125 128.300781 15.84375 128.25 15.71875 C 128.199219 15.597656 128.175781 15.46875 128.175781 15.332031 C 128.175781 15.199219 128.199219 15.070312 128.25 14.945312 C 128.300781 14.820312 128.375 14.710938 128.46875 14.617188 C 128.566406 14.523438 128.675781 14.449219 128.796875 14.398438 C 128.921875 14.347656 129.050781 14.320312 129.183594 14.320312 C 129.320312 14.320312 129.449219 14.347656 129.574219 14.398438 C 129.695312 14.449219 129.804688 14.523438 129.902344 14.617188 C 129.996094 14.710938 130.070312 14.820312 130.121094 14.945312 C 130.171875 15.070312 130.195312 15.199219 130.195312 15.332031 Z M 130.195312 15.332031 " fill-opacity="1" fill-rule="nonzero"/><path fill="#000000" d="M 130.195312 24.269531 C 130.425781 24.269531 130.621094 24.1875 130.78125 24.023438 C 130.945312 23.863281 131.027344 23.667969 131.027344 23.4375 C 131.027344 23.210938 130.945312 23.015625 130.78125 22.851562 C 130.621094 22.691406 130.425781 22.609375 130.195312 22.609375 L 130.015625 22.609375 L 130.015625 18.375 C 130.015625 18.144531 129.933594 17.949219 129.773438 17.789062 C 129.609375 17.625 129.414062 17.546875 129.183594 17.546875 L 128.175781 17.546875 C 127.945312 17.546875 127.75 17.625 127.589844 17.789062 C 127.425781 17.949219 127.34375 18.144531 127.34375 18.375 C 127.34375 18.605469 127.425781 18.800781 127.589844 18.960938 C 127.75 19.121094 127.945312 19.203125 128.175781 19.203125 L 128.355469 19.203125 L 128.355469 22.609375 L 128.175781 22.609375 C 127.945312 22.609375 127.75 22.691406 127.589844 22.851562 C 127.425781 23.015625 127.34375 23.210938 127.34375 23.4375 C 127.34375 23.667969 127.425781 23.863281 127.589844 24.023438 C 127.75 24.1875 127.945312 24.269531 128.175781 24.269531 Z M 130.195312 24.269531 " fill-opacity="1" fill-rule="nonzero"/><path fill="#000000" d="M 142.445312 25.097656 L 139.960938 25.097656 C 139.730469 25.097656 139.535156 25.175781 139.375 25.339844 C 139.210938 25.5 139.132812 25.695312 139.132812 25.925781 C 139.132812 26.152344 139.210938 26.347656 139.375 26.511719 C 139.535156 26.671875 139.730469 26.753906 139.960938 26.753906 L 142.445312 26.753906 C 142.675781 26.753906 142.871094 26.671875 143.03125 26.511719 C 143.195312 26.347656 143.273438 26.152344 143.273438 25.925781 C 143.273438 25.695312 143.195312 25.5 143.03125 25.339844 C 142.871094 25.175781 142.675781 25.097656 142.445312 25.097656 Z M 142.445312 25.097656 " fill-opacity="1" fill-rule="nonzero"/><path fill="#000000" d="M 142.445312 28.410156 L 135.816406 28.410156 C 135.585938 28.410156 135.390625 28.492188 135.230469 28.65625 C 135.066406 28.816406 134.988281 29.011719 134.988281 29.242188 C 134.988281 29.46875 135.066406 29.664062 135.230469 29.828125 C 135.390625 29.988281 135.585938 30.070312 135.816406 30.070312 L 142.445312 30.070312 C 142.675781 30.070312 142.871094 29.988281 143.03125 29.828125 C 143.195312 29.664062 143.273438 29.46875 143.273438 29.242188 C 143.273438 29.011719 143.195312 28.816406 143.03125 28.65625 C 142.871094 28.492188 142.675781 28.410156 142.445312 28.410156 Z M 142.445312 28.410156 " fill-opacity="1" fill-rule="nonzero"/><path fill="#000000" d="M 142.445312 31.726562 L 135.816406 31.726562 C 135.585938 31.726562 135.390625 31.808594 135.230469 31.96875 C 135.066406 32.132812 134.988281 32.328125 134.988281 32.554688 C 134.988281 32.785156 135.066406 32.980469 135.230469 33.140625 C 135.390625 33.304688 135.585938 33.382812 135.816406 33.382812 L 142.445312 33.382812 C 142.675781 33.382812 142.871094 33.304688 143.03125 33.140625 C 143.195312 32.980469 143.273438 32.785156 143.273438 32.554688 C 143.273438 32.328125 143.195312 32.132812 143.03125 31.96875 C 142.871094 31.808594 142.675781 31.726562 142.445312 31.726562 Z M 142.445312 31.726562 " fill-opacity="1" fill-rule="nonzero"/><g fill="#050a30" fill-opacity="1"><g transform="translate(89.328903, 58.855202)"><g><path d="M 6.625 0.296875 C 5.4375 0.296875 4.28125 0.148438 3.15625 -0.140625 C 2.039062 -0.441406 1.132812 -0.835938 0.4375 -1.328125 L 1.796875 -4.390625 C 2.460938 -3.953125 3.226562 -3.597656 4.09375 -3.328125 C 4.957031 -3.066406 5.8125 -2.9375 6.65625 -2.9375 C 8.25 -2.9375 9.046875 -3.335938 9.046875 -4.140625 C 9.046875 -4.554688 8.816406 -4.863281 8.359375 -5.0625 C 7.910156 -5.269531 7.179688 -5.484375 6.171875 -5.703125 C 5.066406 -5.941406 4.140625 -6.195312 3.390625 -6.46875 C 2.648438 -6.75 2.015625 -7.1875 1.484375 -7.78125 C 0.953125 -8.382812 0.6875 -9.195312 0.6875 -10.21875 C 0.6875 -11.113281 0.929688 -11.921875 1.421875 -12.640625 C 1.910156 -13.359375 2.640625 -13.925781 3.609375 -14.34375 C 4.585938 -14.769531 5.785156 -14.984375 7.203125 -14.984375 C 8.160156 -14.984375 9.109375 -14.875 10.046875 -14.65625 C 10.984375 -14.4375 11.8125 -14.117188 12.53125 -13.703125 L 11.25 -10.625 C 9.851562 -11.375 8.492188 -11.75 7.171875 -11.75 C 6.347656 -11.75 5.75 -11.625 5.375 -11.375 C 5 -11.132812 4.8125 -10.816406 4.8125 -10.421875 C 4.8125 -10.035156 5.03125 -9.742188 5.46875 -9.546875 C 5.914062 -9.347656 6.640625 -9.144531 7.640625 -8.9375 C 8.753906 -8.695312 9.675781 -8.441406 10.40625 -8.171875 C 11.144531 -7.898438 11.785156 -7.46875 12.328125 -6.875 C 12.867188 -6.28125 13.140625 -5.472656 13.140625 -4.453125 C 13.140625 -3.566406 12.894531 -2.765625 12.40625 -2.046875 C 11.914062 -1.335938 11.179688 -0.769531 10.203125 -0.34375 C 9.222656 0.0820312 8.03125 0.296875 6.625 0.296875 Z M 6.625 0.296875 "/></g></g></g><g fill="#050a30" fill-opacity="1"><g transform="translate(102.90445, 58.855202)"><g><path d="M 8.875 0.296875 C 7.320312 0.296875 5.925781 -0.03125 4.6875 -0.6875 C 3.445312 -1.34375 2.472656 -2.25 1.765625 -3.40625 C 1.066406 -4.570312 0.71875 -5.882812 0.71875 -7.34375 C 0.71875 -8.800781 1.066406 -10.109375 1.765625 -11.265625 C 2.472656 -12.429688 3.445312 -13.34375 4.6875 -14 C 5.925781 -14.65625 7.320312 -14.984375 8.875 -14.984375 C 10.425781 -14.984375 11.820312 -14.65625 13.0625 -14 C 14.300781 -13.34375 15.273438 -12.429688 15.984375 -11.265625 C 16.691406 -10.109375 17.046875 -8.800781 17.046875 -7.34375 C 17.046875 -5.882812 16.691406 -4.570312 15.984375 -3.40625 C 15.273438 -2.25 14.300781 -1.34375 13.0625 -0.6875 C 11.820312 -0.03125 10.425781 0.296875 8.875 0.296875 Z M 8.875 -3.140625 C 9.613281 -3.140625 10.285156 -3.316406 10.890625 -3.671875 C 11.492188 -4.023438 11.96875 -4.519531 12.3125 -5.15625 C 12.664062 -5.789062 12.84375 -6.519531 12.84375 -7.34375 C 12.84375 -8.164062 12.664062 -8.894531 12.3125 -9.53125 C 11.96875 -10.175781 11.492188 -10.671875 10.890625 -11.015625 C 10.285156 -11.367188 9.613281 -11.546875 8.875 -11.546875 C 8.132812 -11.546875 7.460938 -11.367188 6.859375 -11.015625 C 6.253906 -10.671875 5.773438 -10.175781 5.421875 -9.53125 C 5.078125 -8.894531 4.90625 -8.164062 4.90625 -7.34375 C 4.90625 -6.519531 5.078125 -5.789062 5.421875 -5.15625 C 5.773438 -4.519531 6.253906 -4.023438 6.859375 -3.671875 C 7.460938 -3.316406 8.132812 -3.140625 8.875 -3.140625 Z M 8.875 -3.140625 "/></g></g></g><g fill="#050a30" fill-opacity="1"><g transform="translate(120.655469, 58.855202)"><g><path d="M 12.765625 -7.65625 C 13.597656 -7.363281 14.25 -6.90625 14.71875 -6.28125 C 15.195312 -5.65625 15.4375 -4.90625 15.4375 -4.03125 C 15.4375 -2.738281 14.921875 -1.742188 13.890625 -1.046875 C 12.859375 -0.347656 11.363281 0 9.40625 0 L 1.46875 0 L 1.46875 -14.6875 L 8.984375 -14.6875 C 10.859375 -14.6875 12.285156 -14.335938 13.265625 -13.640625 C 14.242188 -12.953125 14.734375 -12.019531 14.734375 -10.84375 C 14.734375 -10.144531 14.5625 -9.519531 14.21875 -8.96875 C 13.875 -8.414062 13.390625 -7.976562 12.765625 -7.65625 Z M 5.578125 -11.6875 L 5.578125 -8.859375 L 8.4375 -8.859375 C 9.832031 -8.859375 10.53125 -9.332031 10.53125 -10.28125 C 10.53125 -11.21875 9.832031 -11.6875 8.4375 -11.6875 Z M 9.0625 -3 C 10.519531 -3 11.25 -3.492188 11.25 -4.484375 C 11.25 -5.484375 10.519531 -5.984375 9.0625 -5.984375 L 5.578125 -5.984375 L 5.578125 -3 Z M 9.0625 -3 "/></g></g></g><g fill="#050a30" fill-opacity="1"><g transform="translate(136.790857, 58.855202)"><g><path d="M 7.890625 -3.90625 L 5.625 -3.90625 L 5.625 0 L 1.46875 0 L 1.46875 -14.6875 L 8.1875 -14.6875 C 9.507812 -14.6875 10.660156 -14.460938 11.640625 -14.015625 C 12.617188 -13.578125 13.375 -12.945312 13.90625 -12.125 C 14.4375 -11.3125 14.703125 -10.351562 14.703125 -9.25 C 14.703125 -8.1875 14.453125 -7.257812 13.953125 -6.46875 C 13.460938 -5.675781 12.753906 -5.054688 11.828125 -4.609375 L 15 0 L 10.5625 0 Z M 10.515625 -9.25 C 10.515625 -9.9375 10.296875 -10.46875 9.859375 -10.84375 C 9.429688 -11.226562 8.789062 -11.421875 7.9375 -11.421875 L 5.625 -11.421875 L 5.625 -7.109375 L 7.9375 -7.109375 C 8.789062 -7.109375 9.429688 -7.289062 9.859375 -7.65625 C 10.296875 -8.03125 10.515625 -8.5625 10.515625 -9.25 Z M 10.515625 -9.25 "/></g></g></g><g fill="#050a30" fill-opacity="1"><g transform="translate(152.317757, 58.855202)"><g><path d="M 13.265625 -3.203125 L 13.265625 0 L 1.46875 0 L 1.46875 -14.6875 L 12.984375 -14.6875 L 12.984375 -11.484375 L 5.578125 -11.484375 L 5.578125 -9 L 12.109375 -9 L 12.109375 -5.890625 L 5.578125 -5.890625 L 5.578125 -3.203125 Z M 13.265625 -3.203125 "/></g></g></g></svg>